<svg id="svg" version="1.1" xmlns="http://www.w3.org/2000/svg" xmlns:xlink="http://www.w3.org/1999/xlink" width="400" height="224.2622950819672" viewBox="0, 0, 400,224.2622950819672"><g id="svgg"><path id="path0" d="M56.013 13.622 C 55.664 13.675,55.176 13.921,54.927 14.170 C 54.679 14.418,54.131 14.765,53.710 14.941 C 53.289 15.117,52.944 15.387,52.944 15.541 C 52.944 15.695,52.691 16.094,52.381 16.429 C 52.070 16.763,51.717 17.299,51.595 17.619 C 51.451 17.998,51.374 47.755,51.374 102.862 C 51.374 170.344,51.317 187.559,51.094 187.704 C 50.939 187.804,43.343 187.936,34.212 187.998 L 17.611 188.110 17.551 193.786 L 17.491 199.462 18.168 200.849 C 18.540 201.612,18.845 202.415,18.845 202.633 C 18.845 202.850,18.988 203.029,19.162 203.029 C 19.337 203.029,19.674 203.295,19.912 203.621 C 20.193 204.007,20.804 204.357,21.669 204.627 C 23.193 205.103,376.057 205.291,378.239 204.818 C 380.412 204.346,381.147 204.081,381.261 203.730 C 381.325 203.529,381.682 203.193,382.052 202.983 C 382.443 202.761,382.726 202.416,382.726 202.159 C 382.726 201.916,382.978 201.417,383.287 201.050 L 383.847 200.384 383.847 194.191 L 383.847 187.998 367.527 187.994 C 355.007 187.992,351.086 187.927,350.691 187.714 L 350.175 187.437 350.130 102.748 C 350.096 40.282,350.017 17.878,349.830 17.367 C 349.690 16.986,349.311 16.410,348.988 16.087 C 348.666 15.764,348.402 15.404,348.402 15.287 C 348.402 15.170,348.107 14.972,347.746 14.846 C 347.386 14.721,346.856 14.383,346.569 14.095 L 346.046 13.573 201.346 13.550 C 121.761 13.537,56.361 13.570,56.013 13.622 M203.287 17.218 C 203.657 17.588,203.960 19.327,203.809 20.217 C 203.451 22.338,200.220 23.610,199.031 22.098 C 198.788 21.789,198.486 21.537,198.359 21.537 C 197.634 21.537,197.466 18.029,198.158 17.338 C 199.229 16.267,202.265 16.196,203.287 17.218 M339.180 26.563 L 339.652 26.990 339.652 101.289 L 339.652 175.587 339.081 175.847 C 338.081 176.303,63.068 176.214,62.417 175.758 L 61.918 175.409 61.918 101.490 C 61.918 22.969,61.873 26.574,62.867 26.173 C 63.883 25.763,338.725 26.151,339.180 26.563 M73.944 36.025 C 73.869 36.220,73.808 36.868,73.808 37.465 C 73.808 39.178,73.884 39.260,75.491 39.260 C 76.570 39.260,76.933 39.176,77.037 38.905 C 77.276 38.283,77.183 36.219,76.904 35.939 C 76.485 35.520,74.112 35.589,73.944 36.025 M81.810 35.820 C 81.623 36.007,81.612 38.425,81.796 38.905 C 81.961 39.334,93.453 39.447,94.238 39.027 C 94.978 38.631,94.867 36.182,94.096 35.889 C 93.457 35.646,82.048 35.582,81.810 35.820 M73.952 44.812 C 73.482 47.654,73.744 48.233,75.495 48.233 L 76.910 48.233 77.065 47.315 C 77.150 46.810,77.152 45.851,77.068 45.184 L 76.917 43.971 75.504 43.971 L 74.091 43.971 73.952 44.812 M81.770 44.924 C 81.692 45.449,81.661 46.383,81.700 46.999 L 81.772 48.121 98.261 48.185 C 107.330 48.220,115.079 48.190,115.480 48.119 L 116.209 47.989 116.209 46.212 C 116.209 43.763,117.836 43.971,98.626 43.971 L 81.912 43.971 81.770 44.924 M73.944 53.075 C 73.869 53.270,73.808 53.918,73.808 54.515 C 73.808 56.204,73.899 56.310,75.358 56.310 C 76.060 56.310,76.756 56.188,76.904 56.040 C 77.183 55.761,77.276 53.697,77.037 53.075 C 76.841 52.563,74.141 52.563,73.944 53.075 M81.810 52.870 C 81.623 53.057,81.612 55.475,81.796 55.955 C 81.937 56.322,125.615 56.475,127.314 56.113 C 128.075 55.951,128.497 53.336,127.830 52.912 C 127.485 52.693,82.028 52.651,81.810 52.870 M73.967 60.937 C 73.772 61.132,73.764 62.854,73.952 63.993 L 74.091 64.835 75.415 64.835 C 76.992 64.835,77.056 64.742,77.059 62.479 L 77.061 60.909 75.593 60.843 C 74.786 60.807,74.054 60.849,73.967 60.937 M81.811 60.945 C 81.621 61.135,81.614 63.202,81.800 64.133 L 81.941 64.835 98.499 64.835 C 117.748 64.835,116.251 65.020,116.162 62.649 L 116.096 60.909 99.029 60.851 C 89.642 60.819,81.894 60.862,81.811 60.945 M73.911 70.062 C 73.840 70.347,73.813 71.129,73.851 71.801 L 73.920 73.023 75.491 73.023 L 77.061 73.023 77.128 71.739 C 77.228 69.839,76.993 69.546,75.375 69.546 C 74.170 69.546,74.029 69.596,73.911 70.062 M81.763 70.062 C 81.692 70.347,81.665 71.129,81.703 71.801 L 81.772 73.023 98.990 73.080 L 116.209 73.138 116.209 71.482 L 116.209 69.826 115.508 69.686 C 115.122 69.609,107.401 69.546,98.350 69.546 L 81.893 69.546 81.763 70.062 M73.967 77.987 C 73.774 78.180,73.762 80.231,73.950 80.931 C 74.070 81.382,74.226 81.436,75.397 81.436 C 76.991 81.436,77.227 81.136,77.128 79.243 L 77.061 77.958 75.593 77.893 C 74.786 77.857,74.054 77.899,73.967 77.987 M81.813 77.992 C 81.624 78.182,81.610 80.596,81.796 81.081 C 81.916 81.392,82.668 81.436,87.931 81.436 C 94.963 81.436,94.743 81.507,94.628 79.274 L 94.560 77.958 88.263 77.899 C 84.800 77.866,81.897 77.908,81.813 77.992 M73.918 87.325 C 73.837 87.973,73.805 88.856,73.846 89.288 L 73.920 90.073 75.491 90.073 L 77.061 90.073 77.059 88.503 C 77.056 86.236,76.993 86.147,75.402 86.147 L 74.065 86.147 73.918 87.325 M81.770 87.100 C 81.691 87.625,81.660 88.508,81.700 89.063 L 81.772 90.073 93.102 90.073 L 104.431 90.073 104.501 88.839 C 104.539 88.160,104.510 87.277,104.435 86.876 L 104.298 86.147 93.105 86.147 L 81.912 86.147 81.770 87.100 M73.944 95.027 C 73.869 95.222,73.808 95.870,73.808 96.467 C 73.808 98.156,73.899 98.261,75.358 98.261 C 76.948 98.261,77.173 98.039,77.173 96.467 C 77.173 95.776,77.052 95.089,76.904 94.941 C 76.485 94.522,74.112 94.591,73.944 95.027 M81.813 95.042 C 81.625 95.231,81.617 97.291,81.802 97.981 L 81.937 98.486 87.933 98.486 C 94.963 98.486,94.743 98.557,94.628 96.324 L 94.560 95.008 88.263 94.949 C 84.800 94.916,81.897 94.958,81.813 95.042 M99.888 95.045 C 99.419 95.234,99.522 97.666,100.018 98.114 C 100.620 98.660,148.369 98.688,149.422 98.143 C 150.211 97.735,150.451 95.309,149.729 95.032 C 149.305 94.870,100.292 94.882,99.888 95.045 M157.865 95.042 C 157.676 95.231,157.668 97.291,157.853 97.981 L 157.988 98.486 163.835 98.486 C 167.861 98.486,169.917 98.401,170.436 98.213 L 171.190 97.940 171.125 96.474 L 171.060 95.008 164.539 94.949 C 160.952 94.916,157.949 94.958,157.865 95.042 M73.919 103.656 C 73.832 104.167,73.830 105.130,73.913 105.798 L 74.065 107.011 75.489 107.011 L 76.913 107.011 77.051 105.609 C 77.284 103.249,77.069 102.873,75.441 102.794 L 74.075 102.728 73.919 103.656 M81.796 103.103 C 81.619 103.565,81.621 105.415,81.800 106.310 L 81.941 107.011 88.046 107.011 L 94.151 107.011 94.412 106.439 C 94.800 105.586,94.743 103.525,94.319 103.101 C 93.786 102.567,82.001 102.569,81.796 103.103 M99.888 102.897 C 99.487 103.058,99.531 105.314,99.950 106.124 L 100.292 106.786 139.634 106.786 C 175.302 106.786,178.989 106.753,179.112 106.431 C 179.187 106.236,179.248 105.328,179.248 104.412 L 179.248 102.748 139.708 102.766 C 117.961 102.776,100.042 102.835,99.888 102.897 M187.942 102.901 C 187.614 102.988,187.549 103.272,187.549 104.629 C 187.549 107.180,187.118 107.028,194.167 106.958 L 200.224 106.898 200.224 104.879 L 200.224 102.860 194.279 102.828 C 191.010 102.811,188.158 102.844,187.942 102.901 M73.944 112.077 C 73.869 112.272,73.808 112.920,73.808 113.517 C 73.808 115.206,73.899 115.311,75.358 115.311 C 76.932 115.311,77.173 115.084,77.173 113.602 C 77.173 111.794,77.109 111.722,75.491 111.722 C 74.412 111.722,74.049 111.805,73.944 112.077 M81.796 112.077 C 81.721 112.272,81.660 112.920,81.660 113.517 C 81.660 115.446,81.195 115.311,87.868 115.311 C 94.837 115.311,94.672 115.355,94.672 113.517 C 94.672 112.431,94.592 112.144,94.238 111.954 C 93.453 111.534,81.961 111.647,81.796 112.077 M99.877 111.991 C 99.407 112.460,99.532 114.807,100.041 115.079 C 100.625 115.391,210.157 115.405,210.978 115.092 C 211.749 114.799,211.860 112.350,211.120 111.954 C 210.450 111.596,100.235 111.633,99.877 111.991 M216.769 111.869 C 216.400 112.020,216.391 114.675,216.758 115.042 C 217.183 115.466,228.681 115.422,229.036 114.994 C 229.194 114.804,229.272 114.111,229.232 113.256 L 229.164 111.834 223.107 111.794 C 219.776 111.772,216.924 111.805,216.769 111.869 M73.967 119.938 C 73.773 120.132,73.755 122.540,73.944 123.033 C 74.049 123.305,74.413 123.388,75.505 123.388 L 76.929 123.388 77.066 122.653 C 77.142 122.250,77.172 121.467,77.133 120.915 L 77.061 119.910 75.593 119.845 C 74.786 119.809,74.054 119.851,73.967 119.938 M81.810 119.947 C 81.600 120.158,81.629 122.767,81.845 123.108 C 81.988 123.332,93.341 123.377,137.871 123.332 L 193.718 123.275 193.718 121.593 L 193.718 119.910 137.839 119.854 C 107.106 119.823,81.893 119.865,81.810 119.947 M73.917 129.277 C 73.839 129.801,73.807 130.634,73.847 131.127 L 73.920 132.025 75.491 132.025 L 77.061 132.025 77.127 130.776 C 77.238 128.680,76.987 128.323,75.398 128.323 L 74.060 128.323 73.917 129.277 M81.768 129.053 C 81.693 129.454,81.663 130.287,81.702 130.904 L 81.772 132.025 87.717 132.088 C 95.148 132.166,94.672 132.276,94.672 130.485 C 94.672 128.244,94.920 128.323,87.878 128.323 L 81.905 128.323 81.768 129.053 M99.957 128.822 C 99.370 129.659,99.477 131.873,100.112 132.026 C 100.390 132.093,121.565 132.120,147.168 132.086 L 193.718 132.025 193.789 130.904 C 193.828 130.287,193.798 129.454,193.723 129.053 L 193.586 128.323 146.946 128.323 L 100.306 128.323 99.957 128.822 M73.967 136.988 C 73.773 137.182,73.756 139.367,73.944 139.858 C 74.049 140.130,74.414 140.213,75.510 140.213 C 77.151 140.213,77.258 140.071,77.131 138.067 L 77.061 136.960 75.593 136.895 C 74.786 136.859,74.054 136.901,73.967 136.988 M81.753 137.154 C 81.689 137.322,81.667 138.054,81.704 138.780 L 81.772 140.101 115.199 140.165 C 133.584 140.199,148.954 140.170,149.355 140.098 L 150.084 139.968 150.084 138.544 C 150.084 137.453,150.001 137.089,149.729 136.984 C 148.906 136.668,81.875 136.835,81.753 137.154 M73.921 146.042 C 73.836 146.656,73.836 147.565,73.920 148.061 L 74.072 148.962 75.485 148.962 L 76.898 148.962 77.049 147.953 C 77.133 147.398,77.133 146.489,77.049 145.934 L 76.898 144.924 75.486 144.924 L 74.075 144.924 73.921 146.042 M81.802 145.429 C 81.727 145.707,81.666 146.388,81.666 146.943 C 81.666 147.499,81.727 148.180,81.802 148.458 L 81.937 148.962 110.264 148.962 L 138.592 148.962 138.743 147.953 C 138.826 147.398,138.826 146.489,138.743 145.934 L 138.592 144.924 110.264 144.924 L 81.937 144.924 81.802 145.429 M147.162 145.500 C 146.911 146.160,146.880 147.246,147.084 148.265 L 147.225 148.969 153.422 148.910 L 159.619 148.850 159.687 147.399 C 159.724 146.601,159.697 145.717,159.626 145.436 L 159.498 144.924 153.439 144.924 L 147.381 144.924 147.162 145.500 M73.944 154.028 C 73.869 154.224,73.808 154.872,73.808 155.468 C 73.808 157.158,73.899 157.263,75.358 157.263 C 76.060 157.263,76.756 157.142,76.904 156.994 C 77.183 156.715,77.276 154.651,77.037 154.028 C 76.841 153.516,74.141 153.516,73.944 154.028 M81.763 154.190 C 81.692 154.475,81.665 155.257,81.703 155.929 L 81.772 157.151 95.544 157.209 C 110.997 157.274,109.927 157.402,109.927 155.486 C 109.927 153.531,111.050 153.674,95.641 153.674 L 81.893 153.674 81.763 154.190 M73.967 161.890 C 73.771 162.087,73.759 164.138,73.948 165.087 C 74.086 165.777,74.109 165.788,75.412 165.788 C 76.999 165.788,77.234 165.437,77.127 163.224 L 77.061 161.862 75.593 161.797 C 74.786 161.761,74.054 161.803,73.967 161.890 M81.812 161.897 C 81.621 162.088,81.614 164.154,81.800 165.087 L 81.941 165.788 93.119 165.788 L 104.298 165.788 104.435 165.059 C 104.510 164.658,104.539 163.775,104.501 163.096 L 104.431 161.862 93.197 161.804 C 87.019 161.772,81.895 161.814,81.812 161.897 M217.835 193.398 C 220.320 193.961,220.427 194.017,221.144 195.123 C 221.962 196.386,221.910 197.006,220.864 198.481 C 219.822 199.951,220.494 199.907,200.155 199.838 C 179.361 199.767,181.408 199.989,180.322 197.690 L 179.644 196.256 180.088 195.656 C 180.332 195.326,180.603 194.831,180.690 194.556 C 180.777 194.281,181.069 194.008,181.339 193.949 C 181.608 193.890,182.384 193.700,183.062 193.528 C 184.605 193.136,216.160 193.018,217.835 193.398 " stroke="none" fill="#24c26b" fill-rule="evenodd"></path><path id="path1" d="M0.000 112.170 L 0.000 224.341 200.000 224.341 L 400.000 224.341 400.000 112.170 L 400.000 0.000 200.000 0.000 L 0.000 0.000 0.000 112.170 M347.552 12.864 C 347.763 12.968,347.997 13.246,348.072 13.481 C 348.146 13.717,348.394 13.909,348.622 13.909 C 348.865 13.909,349.158 14.182,349.329 14.569 C 349.490 14.932,349.796 15.274,350.011 15.330 C 350.225 15.386,350.469 15.720,350.552 16.073 C 350.636 16.425,350.883 16.915,351.102 17.162 C 352.003 18.179,351.988 16.754,351.990 102.804 L 351.991 186.203 367.877 186.203 L 383.763 186.203 384.254 186.867 C 384.751 187.539,385.021 200.797,384.561 201.954 C 384.261 202.707,382.022 205.007,381.448 205.151 C 381.126 205.232,380.669 205.544,380.432 205.846 L 380.001 206.394 200.561 206.394 L 21.121 206.394 20.703 205.863 C 20.474 205.571,20.070 205.264,19.807 205.180 C 19.269 205.010,17.947 203.738,17.947 203.391 C 17.947 203.267,17.670 202.876,17.330 202.521 L 16.713 201.878 16.713 194.619 L 16.713 187.361 17.256 186.784 L 17.798 186.206 33.633 186.148 L 49.467 186.091 49.579 102.299 L 49.692 18.508 50.274 17.474 C 50.595 16.905,50.915 16.216,50.987 15.943 C 51.058 15.670,51.320 15.393,51.569 15.328 C 51.818 15.263,52.053 14.995,52.091 14.733 C 52.128 14.471,52.393 14.141,52.680 13.998 C 52.966 13.856,53.346 13.531,53.525 13.276 C 53.743 12.965,54.162 12.784,54.799 12.726 C 56.771 12.547,347.185 12.684,347.552 12.864 M199.275 18.289 C 198.514 19.086,198.423 20.415,199.129 20.415 C 199.297 20.415,199.561 20.617,199.716 20.864 C 200.051 21.401,201.114 21.465,201.602 20.976 C 201.788 20.791,202.134 20.639,202.372 20.639 C 203.146 20.639,202.964 19.001,202.098 18.174 C 201.129 17.248,200.234 17.285,199.275 18.289 M63.638 27.744 C 63.556 27.826,63.489 61.039,63.489 101.552 L 63.489 175.210 200.785 175.210 L 338.082 175.210 338.079 101.907 C 338.077 61.590,338.015 28.376,337.940 28.099 L 337.805 27.594 200.796 27.594 C 125.442 27.594,63.720 27.661,63.638 27.744 M77.873 34.971 C 79.243 36.341,79.042 39.900,77.538 40.883 C 77.001 41.234,73.656 41.075,73.331 40.684 C 72.821 40.069,72.905 35.507,73.441 34.717 C 74.167 33.646,76.693 33.791,77.873 34.971 M95.469 34.813 L 96.281 35.526 96.205 37.862 C 96.095 41.280,96.655 41.054,88.281 41.054 C 83.100 41.054,81.435 40.988,81.257 40.772 C 80.519 39.883,79.931 35.895,80.538 35.895 C 80.662 35.895,80.763 35.757,80.763 35.588 C 80.763 35.420,80.972 35.016,81.228 34.691 L 81.693 34.100 88.174 34.100 L 94.656 34.100 95.469 34.813 M78.165 43.505 C 78.706 44.014,78.744 44.184,78.744 46.123 L 78.744 48.197 77.988 48.664 C 76.849 49.368,73.761 49.347,73.260 48.632 C 72.678 47.801,72.767 43.891,73.382 43.276 C 74.098 42.559,77.323 42.714,78.165 43.505 M116.531 43.068 C 117.321 43.369,117.445 48.485,116.672 48.898 C 115.991 49.263,81.629 49.217,81.171 48.850 C 80.013 47.924,80.180 43.318,81.384 43.003 C 82.199 42.789,115.962 42.852,116.531 43.068 M77.343 51.111 C 79.105 52.230,79.308 55.686,77.711 57.407 C 77.113 58.053,74.707 58.361,73.848 57.902 C 72.704 57.289,72.533 51.813,73.636 51.113 C 74.004 50.879,76.975 50.878,77.343 51.111 M128.448 51.244 C 129.080 51.706,129.109 56.966,128.483 57.592 C 128.105 57.970,126.812 57.996,104.980 58.054 L 81.876 58.116 81.319 57.560 C 81.013 57.254,80.763 56.802,80.763 56.557 C 80.763 56.312,80.662 56.049,80.538 55.973 C 80.256 55.799,80.241 53.016,80.521 52.843 C 80.635 52.773,80.794 52.414,80.875 52.046 C 80.956 51.678,81.191 51.278,81.397 51.158 C 82.060 50.771,127.916 50.855,128.448 51.244 M78.015 60.345 L 78.744 60.790 78.744 62.715 C 78.744 65.602,78.191 66.181,75.433 66.181 C 73.136 66.181,73.039 66.060,72.948 63.093 C 72.852 59.966,72.905 59.899,75.451 59.900 C 76.884 59.901,77.445 59.998,78.015 60.345 M116.837 60.168 C 117.382 60.713,117.191 65.422,116.607 65.831 C 115.903 66.324,82.000 66.366,81.328 65.875 C 80.257 65.092,79.946 61.483,80.864 60.493 L 81.414 59.899 98.991 59.899 C 112.363 59.899,116.632 59.963,116.837 60.168 M78.088 68.554 C 78.734 69.242,79.009 72.718,78.468 73.365 C 77.276 74.793,74.725 75.247,73.562 74.238 C 72.925 73.686,72.670 70.599,73.123 68.917 L 73.377 67.975 75.460 67.975 C 77.410 67.975,77.579 68.013,78.088 68.554 M116.874 68.409 C 117.354 69.306,117.163 73.606,116.618 74.186 L 116.130 74.706 98.934 74.706 L 81.738 74.706 81.307 74.201 C 81.069 73.923,80.749 73.470,80.595 73.194 C 80.261 72.597,80.218 70.080,80.538 69.882 C 80.662 69.806,80.763 69.541,80.763 69.293 C 80.763 67.874,79.362 67.975,98.934 67.975 C 116.211 67.975,116.647 67.986,116.874 68.409 M77.621 76.836 C 79.444 78.181,79.132 82.485,77.171 83.030 C 76.456 83.229,74.518 83.264,73.868 83.090 C 72.555 82.738,72.548 76.954,73.860 76.426 C 74.766 76.062,76.884 76.292,77.621 76.836 M94.721 76.510 C 95.985 76.861,96.242 77.401,96.242 79.702 C 96.242 83.339,96.276 83.326,86.662 83.191 C 80.995 83.112,81.094 83.136,80.718 81.744 C 80.053 79.281,80.263 77.794,81.421 76.782 C 82.067 76.216,92.869 75.996,94.721 76.510 M78.121 85.424 C 78.984 86.286,79.021 89.935,78.173 90.601 C 77.507 91.125,74.070 91.312,73.360 90.863 C 72.781 90.497,72.878 85.546,73.472 85.103 C 74.222 84.543,77.463 84.767,78.121 85.424 M104.992 85.250 C 105.381 85.639,105.440 85.997,105.440 87.956 C 105.440 91.458,106.923 91.082,93.109 91.082 L 81.242 91.082 80.778 90.431 C 79.964 89.288,80.421 85.209,81.391 84.953 C 82.912 84.553,104.566 84.824,104.992 85.250 M77.329 93.214 C 78.929 94.334,79.305 97.409,78.051 99.115 L 77.359 100.056 75.618 100.056 C 73.119 100.056,72.430 98.663,73.011 94.787 C 73.281 92.987,75.731 92.094,77.329 93.214 M95.571 93.923 L 96.281 94.520 96.206 96.816 C 96.091 100.317,96.732 100.056,88.239 100.056 L 81.202 100.056 81.011 99.551 C 79.972 96.802,80.049 95.301,81.307 93.831 C 81.736 93.329,81.773 93.326,88.300 93.326 L 94.862 93.326 95.571 93.923 M150.687 93.814 C 151.311 94.400,151.470 98.904,150.894 99.663 C 150.467 100.225,99.341 100.264,98.598 99.703 C 97.933 99.202,97.785 94.875,98.409 94.181 C 99.145 93.363,99.404 93.354,124.943 93.340 L 150.167 93.326 150.687 93.814 M171.829 93.917 C 172.438 94.691,172.521 98.735,171.945 99.557 C 171.480 100.221,157.792 100.357,157.249 99.703 C 156.766 99.121,156.823 94.701,157.324 93.935 L 157.722 93.326 164.543 93.326 L 171.364 93.326 171.829 93.917 M77.852 102.230 C 78.694 102.806,78.737 102.939,78.740 105.009 C 78.745 107.630,78.397 107.986,75.719 108.098 C 73.012 108.212,72.847 108.012,72.948 104.739 C 73.005 102.860,73.102 102.232,73.360 102.070 C 73.964 101.689,77.231 101.805,77.852 102.230 M95.794 102.299 C 96.365 102.871,96.463 106.847,95.924 107.585 C 95.561 108.082,82.608 108.396,81.400 107.937 C 80.105 107.445,79.934 103.120,81.171 102.131 C 81.849 101.589,95.237 101.743,95.794 102.299 M179.921 102.070 C 180.375 102.357,180.414 107.281,179.966 107.729 C 179.657 108.038,102.432 108.314,99.888 108.014 C 98.121 107.806,98.011 107.611,98.086 104.806 C 98.147 102.519,98.172 102.413,98.710 102.141 C 99.409 101.788,179.365 101.719,179.921 102.070 M201.137 102.406 C 202.188 103.380,202.172 106.417,201.111 107.562 L 200.560 108.156 193.505 108.088 C 185.436 108.010,186.021 108.190,185.832 105.737 C 185.521 101.711,185.168 101.883,193.763 101.865 L 200.538 101.851 201.137 102.406 M77.779 110.432 C 79.150 111.937,79.196 114.687,77.873 116.011 C 76.216 117.668,73.381 117.187,73.006 115.185 C 72.788 114.023,73.031 110.659,73.362 110.260 C 73.854 109.668,77.202 109.798,77.779 110.432 M95.703 110.399 C 96.437 111.209,96.445 115.201,95.714 116.096 L 95.164 116.769 88.645 116.838 C 84.255 116.884,81.978 116.827,81.671 116.663 C 80.174 115.862,79.915 111.825,81.257 110.209 C 81.726 109.643,95.178 109.820,95.703 110.399 M212.480 110.297 C 213.110 111.056,213.034 115.354,212.377 116.118 L 211.817 116.769 156.217 116.833 C 97.570 116.901,99.405 116.924,98.573 116.092 C 97.812 115.331,97.763 111.458,98.502 110.518 L 98.967 109.927 155.569 109.927 C 207.901 109.927,212.195 109.955,212.480 110.297 M230.172 110.858 C 231.284 112.392,231.183 114.765,229.955 116.006 L 229.062 116.907 222.607 116.838 C 214.441 116.751,214.547 116.805,214.738 112.811 C 214.884 109.744,214.380 109.927,222.682 109.927 L 229.498 109.927 230.172 110.858 M78.205 119.369 C 79.081 120.189,78.953 123.505,78.009 124.448 C 77.310 125.148,73.934 125.397,73.331 124.795 C 72.580 124.044,72.842 119.238,73.652 118.890 C 74.646 118.462,77.565 118.769,78.205 119.369 M194.160 118.926 C 195.422 119.276,195.610 119.637,195.615 121.705 C 195.619 123.835,195.328 124.527,194.273 124.889 C 193.302 125.223,82.468 125.308,81.594 124.975 C 79.969 124.358,79.930 119.151,81.547 118.827 C 82.713 118.594,193.313 118.691,194.160 118.926 M78.014 127.491 C 78.968 128.444,78.959 131.951,77.999 132.671 C 77.040 133.390,74.045 133.495,73.382 132.833 C 72.531 131.982,72.749 127.469,73.663 127.004 C 74.648 126.503,77.325 126.803,78.014 127.491 M95.814 127.394 C 96.170 127.835,96.242 128.293,96.242 130.108 C 96.242 133.351,96.792 133.131,88.469 133.215 L 81.639 133.283 80.960 132.556 C 80.236 131.781,80.139 130.196,80.687 128.101 C 81.036 126.769,81.239 126.736,88.691 126.804 L 95.385 126.865 95.814 127.394 M194.432 127.124 C 195.418 127.591,195.626 128.148,195.622 130.301 C 195.618 132.302,195.550 132.452,194.447 132.913 C 193.453 133.328,100.609 133.450,99.173 133.038 C 98.111 132.734,98.044 132.553,98.040 129.977 C 98.037 127.528,98.117 127.340,99.313 126.981 C 100.670 126.573,193.566 126.713,194.432 127.124 M77.289 135.225 C 78.316 135.968,78.744 136.907,78.744 138.421 C 78.744 141.349,78.146 142.008,75.490 142.008 C 73.091 142.008,73.023 141.915,73.023 138.634 C 73.023 135.356,73.229 135.052,75.440 135.057 C 76.332 135.059,77.164 135.134,77.289 135.225 M150.741 135.644 C 151.351 136.420,151.435 140.683,150.857 141.509 L 150.507 142.008 116.102 142.008 C 78.784 142.008,81.062 142.075,80.856 140.974 C 80.777 140.553,80.622 140.153,80.513 140.085 C 79.848 139.674,80.652 135.796,81.521 135.225 C 81.659 135.134,97.186 135.059,116.024 135.057 L 150.276 135.053 150.741 135.644 M78.053 144.383 C 78.722 144.946,78.744 145.022,78.744 146.833 C 78.744 149.743,78.393 150.084,75.402 150.084 C 73.052 150.084,72.911 149.906,72.911 146.943 C 72.911 143.961,73.041 143.803,75.486 143.803 C 77.178 143.803,77.431 143.860,78.053 144.383 M139.563 144.315 C 140.311 144.818,140.327 144.862,140.392 146.614 C 140.478 148.935,140.372 149.285,139.447 149.723 C 138.502 150.172,81.444 150.182,80.995 149.733 C 80.117 148.855,80.192 145.251,81.107 144.335 L 81.640 143.803 110.220 143.803 L 138.801 143.803 139.563 144.315 M160.471 144.170 C 161.476 144.685,161.518 144.798,161.522 146.999 C 161.528 150.209,161.735 150.139,152.588 150.042 L 146.006 149.972 145.577 149.442 C 144.630 148.271,145.014 144.611,146.136 144.123 C 147.261 143.633,159.502 143.674,160.471 144.170 M77.343 152.064 C 80.976 154.372,77.585 160.855,73.803 158.831 C 72.698 158.239,72.562 152.748,73.636 152.066 C 74.004 151.833,76.975 151.831,77.343 152.064 M110.278 152.343 C 111.362 153.541,110.866 158.589,109.632 158.920 C 108.727 159.163,82.109 159.074,81.647 158.827 C 80.097 157.997,79.907 153.282,81.378 152.159 C 82.119 151.594,109.759 151.770,110.278 152.343 M78.113 161.331 L 78.785 161.810 78.708 163.931 C 78.605 166.785,78.256 167.134,75.506 167.134 C 73.114 167.134,73.046 167.057,72.949 164.240 C 72.836 160.943,72.902 160.852,75.394 160.852 C 77.124 160.852,77.545 160.927,78.113 161.331 M105.208 161.286 C 105.591 162.002,105.502 166.048,105.091 166.635 L 104.742 167.134 93.124 167.134 C 80.080 167.134,81.104 167.273,80.577 165.425 C 80.156 163.945,80.242 162.257,80.778 161.504 L 81.242 160.852 93.109 160.852 C 104.612 160.852,104.983 160.866,105.208 161.286 M181.633 195.233 C 181.324 196.389,181.473 197.681,181.930 197.801 C 182.171 197.864,182.527 198.157,182.720 198.453 L 183.073 198.990 200.765 198.990 L 218.457 198.990 218.824 198.430 C 219.026 198.121,219.330 197.869,219.499 197.869 C 219.922 197.869,220.103 196.990,219.935 195.760 L 219.793 194.728 200.781 194.728 L 181.769 194.728 181.633 195.233 " stroke="none" fill="#343444" fill-rule="evenodd"></path><path id="path2" d="M55.166 12.982 C 54.468 13.152,52.285 14.606,52.277 14.906 C 52.274 15.023,52.020 15.381,51.712 15.702 C 51.381 16.047,50.923 17.055,50.588 18.173 L 50.023 20.061 50.030 103.370 C 50.034 149.190,49.979 186.774,49.907 186.890 C 49.828 187.018,43.424 187.100,33.564 187.100 L 17.350 187.100 17.075 187.615 C 16.514 188.663,16.833 201.056,17.443 201.880 C 17.720 202.255,17.947 202.664,17.947 202.789 C 17.947 203.104,19.919 205.048,20.238 205.048 C 20.381 205.048,20.740 205.275,21.036 205.552 L 21.573 206.057 200.561 206.057 L 379.549 206.057 380.086 205.552 C 380.382 205.275,380.748 205.048,380.900 205.048 C 381.051 205.048,381.423 204.801,381.724 204.499 C 382.026 204.198,382.426 203.865,382.613 203.760 C 382.800 203.656,383.306 203.023,383.737 202.353 L 384.520 201.137 384.513 194.511 C 384.508 189.357,384.440 187.798,384.208 187.493 C 383.929 187.126,382.887 187.100,368.007 187.097 C 359.260 187.095,351.976 187.013,351.822 186.915 C 351.597 186.772,351.529 169.852,351.485 102.846 L 351.430 18.957 350.925 17.904 C 350.648 17.324,350.419 16.718,350.417 16.557 C 350.407 15.848,347.485 13.240,346.411 12.982 C 346.087 12.904,280.555 12.841,200.785 12.841 C 121.015 12.841,55.486 12.904,55.166 12.982 M346.181 13.273 C 348.148 13.946,349.776 15.745,350.514 18.061 L 351.094 19.881 351.094 102.240 C 351.094 165.071,351.030 184.872,350.827 185.754 C 350.603 186.722,350.613 186.942,350.883 187.114 C 351.069 187.231,358.035 187.319,367.341 187.321 C 382.037 187.324,383.512 187.358,383.886 187.696 C 384.457 188.213,384.516 199.887,383.954 201.073 C 383.042 202.995,382.008 204.130,380.370 205.008 L 379.248 205.609 200.785 205.669 L 22.322 205.729 21.099 205.114 C 19.723 204.423,18.675 203.366,17.773 201.761 L 17.162 200.673 17.093 194.381 C 17.029 188.463,17.050 188.067,17.446 187.709 C 17.833 187.359,19.204 187.323,34.340 187.270 L 50.813 187.213 50.733 186.203 C 50.337 181.235,50.512 20.459,50.915 18.611 C 51.365 16.553,52.720 14.358,53.540 14.358 C 53.706 14.358,53.842 14.268,53.842 14.158 C 53.842 14.049,54.271 13.751,54.795 13.497 L 55.749 13.034 200.583 13.023 C 310.141 13.015,345.604 13.075,346.181 13.273 M201.010 16.961 C 200.824 16.994,200.290 17.083,199.821 17.159 C 197.929 17.469,197.494 19.782,199.044 21.287 C 200.180 22.389,200.997 22.486,202.130 21.650 C 204.158 20.153,203.300 16.562,201.010 16.961 M202.335 17.699 C 202.756 18.024,202.897 18.381,202.976 19.331 C 203.218 22.257,198.993 22.555,198.448 19.650 C 198.113 17.865,200.798 16.518,202.335 17.699 M63.165 26.971 C 62.556 27.840,62.640 175.325,63.249 175.651 C 63.835 175.964,337.356 175.978,338.179 175.665 L 338.755 175.446 338.755 101.408 C 338.755 27.669,338.753 27.368,338.306 26.921 C 337.859 26.473,337.558 26.472,200.686 26.472 L 63.514 26.472 63.165 26.971 M338.074 27.355 C 338.508 28.167,338.387 175.356,337.951 175.523 C 337.209 175.808,63.595 175.675,63.309 175.390 C 62.938 175.018,62.915 28.692,63.286 27.627 L 63.532 26.921 200.687 26.921 C 336.058 26.921,337.845 26.927,338.074 27.355 M73.712 35.125 C 73.021 35.816,72.925 39.475,73.577 40.261 C 74.132 40.930,77.078 40.736,77.561 39.999 C 78.267 38.920,78.257 36.060,77.543 35.347 C 76.839 34.643,74.339 34.498,73.712 35.125 M81.453 35.204 C 80.846 35.811,80.763 39.289,81.336 40.107 C 81.857 40.850,94.607 40.895,95.345 40.157 C 95.926 39.576,95.996 36.069,95.441 35.334 C 94.898 34.615,82.161 34.497,81.453 35.204 M77.269 35.574 C 77.759 36.063,77.761 38.961,77.273 39.658 C 76.820 40.304,74.289 40.399,73.782 39.789 C 73.278 39.182,73.223 36.193,73.706 35.659 C 74.224 35.087,76.722 35.027,77.269 35.574 M95.199 35.642 C 95.841 36.175,95.717 38.908,95.019 39.606 L 94.468 40.157 88.189 40.157 C 80.821 40.157,81.211 40.300,81.211 37.601 C 81.211 35.059,80.824 35.185,88.402 35.265 C 93.441 35.319,94.908 35.400,95.199 35.642 M73.584 43.522 C 72.878 44.228,72.916 48.054,73.634 48.557 C 74.778 49.358,77.735 48.868,77.994 47.834 C 78.290 46.654,77.905 43.888,77.386 43.468 C 76.659 42.879,74.192 42.914,73.584 43.522 M81.491 43.419 C 80.726 43.955,80.722 48.022,81.486 48.557 C 82.014 48.927,114.903 49.068,116.209 48.706 C 116.816 48.537,117.188 44.332,116.666 43.522 C 116.328 42.997,82.237 42.896,81.491 43.419 M77.353 43.791 C 77.944 44.382,77.699 48.126,77.051 48.422 C 76.093 48.858,74.167 48.754,73.702 48.240 C 73.289 47.783,73.262 44.449,73.667 43.794 C 73.892 43.430,76.989 43.428,77.353 43.791 M116.414 43.836 C 116.582 44.039,116.652 44.894,116.610 46.248 L 116.545 48.345 115.536 48.497 C 113.450 48.810,82.029 48.692,81.604 48.370 C 81.149 48.025,81.030 44.730,81.444 43.956 C 81.752 43.380,115.938 43.262,116.414 43.836 M73.675 51.846 C 73.319 52.239,73.247 52.668,73.247 54.403 C 73.247 57.103,73.491 57.434,75.469 57.424 C 76.234 57.420,77.006 57.288,77.221 57.125 C 78.499 56.154,78.320 52.332,76.961 51.605 C 76.154 51.173,74.151 51.320,73.675 51.846 M81.455 51.961 C 80.747 52.861,80.763 56.308,81.478 56.974 C 82.142 57.593,127.395 57.694,128.211 57.078 C 128.899 56.559,129.011 52.841,128.363 52.041 L 127.914 51.486 104.919 51.426 L 81.923 51.366 81.455 51.961 M77.212 52.418 C 77.831 52.979,77.804 55.904,77.173 56.534 C 76.585 57.123,74.252 57.181,73.785 56.619 C 73.307 56.042,73.232 53.285,73.676 52.607 C 74.138 51.903,76.502 51.776,77.212 52.418 M128.235 52.440 C 128.661 53.001,128.632 55.843,128.194 56.422 C 127.860 56.865,127.557 56.871,104.930 56.931 L 82.005 56.991 81.613 56.482 C 81.072 55.779,81.051 53.045,81.583 52.457 C 82.148 51.833,127.761 51.816,128.235 52.440 M73.467 60.496 C 72.992 60.972,73.060 64.766,73.555 65.361 C 73.968 65.858,77.205 65.898,77.608 65.412 C 78.159 64.749,78.192 61.143,77.653 60.603 C 77.019 59.970,74.069 59.894,73.467 60.496 M81.380 60.366 C 80.761 60.726,80.797 65.165,81.421 65.500 C 82.085 65.855,116.256 65.819,116.612 65.463 C 117.111 64.965,116.971 60.636,116.448 60.356 C 115.853 60.037,81.927 60.047,81.380 60.366 M77.266 60.643 C 77.803 61.035,77.724 64.940,77.173 65.288 C 76.752 65.554,74.251 65.568,73.838 65.306 C 73.326 64.982,73.199 61.213,73.683 60.729 C 74.157 60.255,76.655 60.195,77.266 60.643 M116.388 60.617 C 116.753 60.982,116.753 64.873,116.388 65.238 C 116.183 65.443,112.019 65.508,99.014 65.508 L 81.910 65.508 81.561 65.009 C 81.033 64.256,81.066 60.903,81.604 60.590 C 82.209 60.238,116.035 60.264,116.388 60.617 M73.860 68.387 C 73.118 68.858,72.843 72.619,73.484 73.534 C 73.843 74.046,76.669 74.288,77.308 73.861 C 78.394 73.136,78.296 69.025,77.178 68.427 C 76.675 68.157,74.267 68.129,73.860 68.387 M81.380 68.697 C 80.838 69.375,80.807 73.148,81.340 73.680 C 81.877 74.217,115.992 74.217,116.529 73.680 C 117.029 73.180,117.031 69.411,116.532 68.698 L 116.183 68.200 98.978 68.203 L 81.772 68.206 81.380 68.697 M77.202 69.019 C 77.800 69.740,77.758 73.014,77.145 73.444 C 76.257 74.066,74.131 73.943,73.672 73.242 C 73.232 72.571,73.324 69.569,73.801 68.993 C 74.216 68.493,76.781 68.513,77.202 69.019 M116.209 69.097 C 116.815 69.703,116.873 72.901,116.286 73.388 C 115.660 73.908,82.200 73.960,81.628 73.442 C 81.088 72.954,81.040 70.303,81.554 69.310 L 81.896 68.648 98.828 68.648 C 115.461 68.648,115.768 68.656,116.209 69.097 M73.582 77.400 C 72.902 78.080,72.988 81.955,73.694 82.472 C 74.370 82.966,76.848 82.883,77.381 82.349 C 78.129 81.602,78.319 78.005,77.646 77.332 C 77.108 76.794,74.138 76.843,73.582 77.400 M81.340 77.301 C 81.069 77.572,80.987 78.145,80.987 79.769 C 80.987 82.966,80.565 82.782,87.886 82.781 C 94.759 82.779,95.487 82.669,95.685 81.596 C 96.014 79.823,95.718 77.540,95.121 77.238 C 94.202 76.775,81.809 76.832,81.340 77.301 M77.123 77.523 C 77.759 77.968,77.864 80.990,77.273 81.835 C 76.832 82.464,74.289 82.577,73.801 81.989 C 73.324 81.413,73.232 78.410,73.672 77.739 C 74.124 77.049,76.256 76.915,77.123 77.523 M94.502 77.409 C 95.500 77.686,95.667 78.132,95.523 80.131 C 95.360 82.389,95.547 82.333,88.147 82.333 L 81.896 82.333 81.554 81.671 C 81.072 80.741,81.091 78.127,81.583 77.584 C 82.016 77.105,92.877 76.958,94.502 77.409 M73.878 85.189 C 73.095 85.725,72.794 89.812,73.488 90.506 C 74.069 91.087,77.034 90.998,77.651 90.380 C 78.260 89.772,78.174 86.154,77.536 85.516 C 77.136 85.116,74.349 84.866,73.878 85.189 M81.436 85.474 C 80.772 86.138,80.760 90.272,81.421 90.626 C 81.704 90.777,85.841 90.858,93.303 90.858 C 106.593 90.858,105.216 91.193,105.216 87.956 C 105.216 84.738,106.402 85.025,93.102 85.025 C 82.184 85.025,81.872 85.037,81.436 85.474 M77.173 85.693 C 77.724 86.041,77.803 89.947,77.266 90.339 C 76.657 90.784,74.157 90.726,73.686 90.255 C 73.225 89.794,73.308 86.414,73.795 85.827 C 74.127 85.426,76.596 85.329,77.173 85.693 M104.529 85.685 C 104.971 85.964,105.169 89.813,104.767 90.297 C 104.358 90.791,82.025 90.806,81.532 90.313 C 81.070 89.851,81.091 86.643,81.561 85.973 L 81.910 85.474 93.058 85.477 C 99.364 85.479,104.347 85.569,104.529 85.685 M73.721 93.894 C 72.959 94.656,72.948 98.332,73.706 99.170 C 74.329 99.858,76.693 99.796,77.372 99.074 C 78.295 98.092,78.303 95.023,77.386 94.038 C 76.813 93.423,74.291 93.324,73.721 93.894 M77.173 94.448 C 77.829 95.103,77.819 97.726,77.157 98.568 C 76.391 99.541,74.258 99.447,73.703 98.415 C 73.234 97.545,73.289 94.961,73.789 94.359 C 74.252 93.801,76.587 93.862,77.173 94.448 M81.320 94.371 C 81.012 94.679,80.960 95.124,81.023 96.942 C 81.131 100.055,80.588 99.848,88.467 99.778 L 94.936 99.720 95.365 99.190 C 96.045 98.350,95.994 94.838,95.295 94.348 C 94.521 93.806,81.864 93.827,81.320 94.371 M99.229 94.225 C 98.244 94.622,97.897 96.956,98.581 98.592 C 99.118 99.877,98.439 99.847,125.412 99.780 L 150.124 99.720 150.553 99.190 C 151.169 98.429,151.182 94.923,150.571 94.370 C 150.111 93.953,100.253 93.812,99.229 94.225 M157.459 94.371 C 156.969 94.961,157.041 98.450,157.559 99.240 L 157.966 99.862 164.562 99.791 C 172.418 99.706,171.917 99.892,172.037 97.016 C 172.098 95.536,172.035 94.989,171.751 94.556 L 171.386 93.999 164.576 93.999 C 158.511 93.999,157.733 94.039,157.459 94.371 M94.433 94.443 C 95.424 94.728,95.562 94.975,95.563 96.467 C 95.564 99.368,95.524 99.383,87.857 99.383 L 81.896 99.383 81.554 98.721 C 81.072 97.790,81.091 95.177,81.583 94.633 C 82.007 94.164,92.899 94.003,94.433 94.443 M150.386 94.643 C 150.869 95.044,150.898 97.563,150.430 98.467 C 149.944 99.407,150.614 99.383,124.382 99.383 L 100.081 99.383 99.464 98.852 C 98.276 97.830,98.437 94.958,99.712 94.434 C 100.561 94.085,149.960 94.289,150.386 94.643 M171.402 94.672 C 171.518 94.857,171.616 95.772,171.617 96.704 C 171.623 99.437,172.106 99.259,164.460 99.340 L 157.935 99.408 157.711 98.820 C 157.414 98.040,157.425 95.208,157.726 94.645 C 158.047 94.045,171.022 94.070,171.402 94.672 M73.484 102.574 C 72.923 103.376,72.994 106.869,73.584 107.459 C 74.211 108.086,76.660 108.102,77.423 107.484 C 78.147 106.897,78.226 103.318,77.531 102.549 C 76.883 101.830,73.992 101.848,73.484 102.574 M81.358 102.485 C 80.697 103.217,80.827 107.120,81.528 107.579 C 82.279 108.071,94.827 107.983,95.431 107.482 C 96.112 106.916,95.859 102.738,95.121 102.365 C 94.111 101.855,81.832 101.963,81.358 102.485 M99.263 102.289 C 98.120 102.752,97.818 106.125,98.820 107.232 C 99.402 107.875,179.193 107.955,179.726 107.313 C 180.236 106.699,180.290 103.055,179.797 102.511 C 179.376 102.045,100.400 101.828,99.263 102.289 M186.932 102.410 L 186.203 102.727 186.203 104.834 C 186.203 107.980,185.709 107.781,193.729 107.864 C 201.709 107.947,201.234 108.128,201.234 105.000 C 201.234 101.910,201.642 102.073,193.957 102.084 C 189.043 102.091,187.501 102.162,186.932 102.410 M179.452 102.669 C 180.046 103.086,180.058 106.417,179.468 107.128 C 179.005 107.686,99.791 107.515,99.231 106.955 C 98.923 106.646,98.837 106.167,98.830 104.714 L 98.822 102.865 99.607 102.595 C 101.001 102.115,178.765 102.188,179.452 102.669 M77.353 102.793 C 77.922 103.362,77.699 106.908,77.069 107.321 C 76.328 107.807,74.195 107.813,73.795 107.331 C 73.383 106.835,73.216 103.303,73.583 102.861 C 73.934 102.438,76.943 102.384,77.353 102.793 M95.135 102.756 C 95.580 102.994,95.766 105.468,95.433 106.709 C 95.218 107.511,93.845 107.684,87.692 107.684 C 80.841 107.684,81.211 107.837,81.211 105.002 C 81.211 103.792,81.313 102.961,81.481 102.793 C 81.831 102.442,94.485 102.408,95.135 102.756 M200.550 102.736 C 201.076 103.069,201.004 106.621,200.459 107.224 C 199.948 107.789,189.055 107.909,187.549 107.367 L 186.764 107.084 186.700 104.934 C 186.643 103.027,186.681 102.772,187.036 102.680 C 187.805 102.480,200.226 102.532,200.550 102.736 M73.460 111.154 C 73.072 112.083,73.030 114.693,73.393 115.382 C 73.776 116.110,74.013 116.201,75.522 116.205 C 77.637 116.210,77.958 115.850,77.958 113.470 C 77.958 110.716,77.685 110.376,75.474 110.376 L 73.785 110.376 73.460 111.154 M81.336 110.874 C 80.747 111.716,80.847 115.163,81.478 115.751 C 82.409 116.618,95.038 116.379,95.606 115.484 C 96.018 114.835,95.820 111.299,95.345 110.824 C 94.607 110.086,81.857 110.132,81.336 110.874 M99.364 110.523 C 98.250 110.822,97.830 114.451,98.797 115.419 C 99.630 116.252,97.809 116.228,156.329 116.161 L 211.818 116.096 212.246 115.567 C 212.989 114.650,212.765 111.082,211.932 110.552 C 211.660 110.379,100.008 110.350,99.364 110.523 M215.685 110.935 C 215.161 111.459,215.130 111.621,215.190 113.459 L 215.255 115.423 216.040 115.816 C 216.730 116.160,217.569 116.208,222.949 116.208 L 229.073 116.209 229.646 115.635 C 230.360 114.921,230.371 112.061,229.664 110.983 L 229.266 110.376 222.755 110.376 L 216.244 110.376 215.685 110.935 M77.273 111.323 C 77.761 112.020,77.759 114.918,77.269 115.407 C 76.639 116.038,74.130 115.893,73.676 115.200 C 73.232 114.522,73.307 111.765,73.785 111.188 C 74.289 110.582,76.822 110.680,77.273 111.323 M95.150 111.477 C 95.849 112.341,95.675 115.078,94.896 115.470 C 93.951 115.947,82.159 115.875,81.622 115.389 C 81.072 114.891,81.034 112.075,81.568 111.313 L 81.924 110.805 88.318 110.871 L 94.712 110.937 95.150 111.477 M211.554 111.115 C 212.089 111.386,212.114 111.490,212.114 113.401 C 212.114 115.346,212.098 115.408,211.554 115.559 C 210.585 115.829,100.393 115.792,99.683 115.522 C 98.317 115.002,98.272 111.891,99.619 111.145 C 100.406 110.709,210.693 110.679,211.554 111.115 M229.376 111.323 C 229.864 112.020,229.862 114.918,229.373 115.407 C 228.903 115.877,217.181 115.933,216.265 115.470 C 215.366 115.017,215.300 111.984,216.174 111.297 C 217.136 110.540,228.844 110.563,229.376 111.323 M73.582 119.351 C 72.997 119.936,72.984 123.675,73.565 124.374 C 74.034 124.939,76.970 124.882,77.499 124.297 C 78.143 123.585,78.266 120.308,77.676 119.583 C 77.010 118.764,74.321 118.612,73.582 119.351 M81.488 119.249 C 80.794 119.735,80.723 123.752,81.397 124.362 C 82.111 125.008,193.812 124.926,194.397 124.279 C 195.054 123.553,195.158 120.326,194.549 119.574 L 194.095 119.013 138.041 118.956 C 87.522 118.904,81.939 118.933,81.488 119.249 M77.267 119.645 C 77.802 120.036,77.724 123.717,77.173 124.065 C 76.704 124.362,73.869 124.341,73.683 124.040 C 73.296 123.414,73.297 120.117,73.683 119.731 C 74.157 119.257,76.655 119.197,77.267 119.645 M194.150 119.646 C 194.651 120.012,194.600 123.291,194.083 123.914 C 193.799 124.257,189.584 124.285,137.754 124.285 L 81.732 124.285 81.472 123.714 C 81.039 122.764,81.132 119.867,81.604 119.592 C 82.254 119.213,193.631 119.266,194.150 119.646 M73.567 127.558 C 73.170 128.036,72.997 131.685,73.342 132.328 C 73.765 133.120,77.229 133.051,77.760 132.240 C 78.266 131.469,78.082 128.283,77.495 127.634 C 76.972 127.055,74.031 126.999,73.567 127.558 M81.358 127.612 C 80.898 128.121,80.815 132.100,81.256 132.541 C 81.679 132.964,95.197 132.922,95.550 132.496 C 96.107 131.825,95.763 127.816,95.121 127.491 C 94.111 126.981,81.832 127.089,81.358 127.612 M99.229 127.428 C 98.238 127.827,97.852 131.503,98.710 132.361 C 99.156 132.807,99.458 132.810,146.714 132.810 L 194.269 132.810 194.642 132.240 C 195.214 131.367,194.958 128.155,194.272 127.599 C 193.727 127.158,100.316 126.989,99.229 127.428 M77.074 127.744 C 77.614 128.138,77.865 131.686,77.393 132.254 C 76.910 132.837,73.892 132.713,73.562 132.097 C 73.236 131.487,73.426 128.223,73.815 127.754 C 74.177 127.318,76.482 127.311,77.074 127.744 M95.055 127.937 C 95.516 128.398,95.747 131.560,95.362 132.137 C 95.056 132.595,82.044 132.773,81.506 132.326 C 81.059 131.955,81.167 128.356,81.642 127.784 C 82.133 127.192,94.452 127.333,95.055 127.937 M193.963 127.897 C 194.569 128.567,194.720 131.664,194.173 132.211 C 193.617 132.767,100.002 132.792,99.209 132.236 C 98.205 131.533,98.645 128.101,99.793 127.681 C 100.176 127.540,117.204 127.455,146.965 127.443 L 193.537 127.426 193.963 127.897 M73.683 136.045 C 73.067 136.495,73.040 140.252,73.645 141.176 C 74.208 142.035,76.449 142.079,77.281 141.248 C 78.292 140.237,78.374 136.920,77.407 136.138 C 76.770 135.622,74.344 135.561,73.683 136.045 M81.436 136.175 C 80.765 136.846,80.776 140.333,81.452 141.192 L 81.917 141.784 115.271 141.778 C 147.191 141.773,150.012 141.720,150.616 141.117 C 150.924 140.809,151.078 136.855,150.798 136.439 C 150.358 135.785,147.947 135.737,115.367 135.732 C 82.180 135.726,81.881 135.730,81.436 136.175 M77.212 136.546 C 77.757 137.040,77.799 139.860,77.273 140.612 C 76.822 141.255,74.289 141.353,73.785 140.746 C 73.307 140.170,73.232 137.413,73.676 136.735 C 74.138 136.030,76.502 135.904,77.212 136.546 M150.259 136.524 C 150.827 136.922,150.981 139.253,150.507 140.292 C 150.125 141.132,151.034 141.110,115.421 141.110 L 81.936 141.110 81.574 140.558 C 81.067 139.785,81.073 137.148,81.583 136.585 C 82.114 135.998,149.422 135.938,150.259 136.524 M73.367 144.685 C 72.908 145.544,73.077 148.905,73.607 149.434 C 74.154 149.981,77.129 149.994,77.671 149.452 C 78.082 149.041,78.065 145.122,77.651 144.622 C 77.163 144.035,73.688 144.086,73.367 144.685 M81.256 144.520 C 80.826 144.950,80.895 149.063,81.340 149.507 C 81.945 150.112,138.374 150.037,139.123 149.430 C 139.762 148.912,139.927 145.324,139.344 144.622 C 138.944 144.140,81.737 144.040,81.256 144.520 M146.145 144.570 C 145.472 145.062,145.370 148.408,146.005 149.192 L 146.454 149.748 153.056 149.813 C 161.172 149.894,160.746 150.051,160.730 146.985 C 160.724 145.652,160.619 144.847,160.422 144.610 C 160.001 144.103,146.835 144.065,146.145 144.570 M77.353 144.745 C 77.779 145.171,77.711 148.841,77.269 149.283 C 76.678 149.874,74.153 149.771,73.709 149.137 C 73.308 148.565,73.226 145.979,73.578 145.051 C 73.825 144.402,76.771 144.163,77.353 144.745 M139.084 144.910 C 139.562 145.803,139.374 148.896,138.817 149.286 C 138.029 149.838,82.232 149.816,81.622 149.264 C 81.126 148.815,81.013 145.212,81.481 144.745 C 82.016 144.209,138.796 144.372,139.084 144.910 M159.955 144.695 C 160.559 145.077,160.569 148.573,159.967 149.175 C 159.287 149.855,147.242 149.808,146.558 149.122 C 145.950 148.512,145.977 145.245,146.594 144.794 C 147.111 144.416,159.370 144.325,159.955 144.695 M73.675 152.799 C 72.987 153.559,72.923 156.933,73.580 157.768 C 74.431 158.850,77.264 158.564,77.822 157.340 C 78.341 156.200,78.075 153.555,77.364 152.792 C 76.732 152.113,74.291 152.118,73.675 152.799 M81.452 152.919 C 81.061 153.415,80.987 153.826,80.987 155.490 C 80.987 158.684,79.463 158.385,95.734 158.385 L 109.500 158.385 110.050 157.791 C 110.793 156.989,110.854 154.205,110.154 153.057 L 109.709 152.328 95.813 152.328 L 81.917 152.328 81.452 152.919 M77.131 153.234 C 77.551 153.625,77.622 153.932,77.622 155.356 C 77.622 157.492,77.243 157.936,75.419 157.936 C 73.443 157.936,72.531 155.482,73.744 153.428 C 74.246 152.579,76.302 152.461,77.131 153.234 M109.802 153.275 C 110.042 153.618,110.151 154.295,110.151 155.444 C 110.151 158.189,111.620 157.936,95.672 157.936 L 81.936 157.936 81.574 157.383 C 81.333 157.016,81.211 156.335,81.211 155.356 C 81.211 154.377,81.333 153.696,81.574 153.329 L 81.936 152.776 95.695 152.776 L 109.453 152.776 109.802 153.275 M73.479 161.517 C 73.063 161.978,73.030 165.747,73.437 166.405 C 73.774 166.949,77.333 166.777,77.641 166.201 C 78.179 165.195,78.186 162.090,77.652 161.555 C 76.973 160.876,74.083 160.850,73.479 161.517 M81.380 161.319 C 80.830 161.640,80.797 165.790,81.340 166.333 C 81.945 166.938,104.658 166.860,104.984 166.251 C 105.371 165.528,105.279 161.845,104.863 161.429 C 104.437 161.003,82.103 160.898,81.380 161.319 M77.188 161.533 C 77.766 161.843,77.829 165.168,77.273 165.962 C 76.828 166.598,74.289 166.704,73.795 166.108 C 73.308 165.521,73.225 162.141,73.686 161.680 C 74.122 161.244,76.464 161.146,77.188 161.533 M104.641 161.600 C 105.067 161.912,105.104 165.511,104.687 166.184 C 104.556 166.398,101.932 166.461,93.213 166.461 L 81.910 166.461 81.561 165.962 C 81.033 165.209,81.066 161.857,81.604 161.543 C 82.248 161.169,104.125 161.222,104.641 161.600 M181.819 194.370 C 180.196 195.077,180.442 198.043,182.209 199.057 C 183.159 199.603,218.125 199.649,219.175 199.106 C 221.130 198.095,221.336 194.971,219.494 194.270 C 218.544 193.909,182.659 194.004,181.819 194.370 M219.862 194.646 C 220.528 195.312,220.397 197.515,219.648 198.265 C 218.644 199.269,219.240 199.241,200.039 199.169 L 182.579 199.103 181.811 198.265 C 180.309 196.626,180.940 194.577,182.990 194.438 C 186.313 194.213,219.616 194.400,219.862 194.646 " stroke="none" fill="#2c6455" fill-rule="evenodd"></path><path id="path3" d="M54.795 13.497 C 54.271 13.751,53.842 14.049,53.842 14.158 C 53.842 14.268,53.706 14.358,53.540 14.358 C 52.720 14.358,51.365 16.553,50.915 18.611 C 50.512 20.459,50.337 181.235,50.733 186.203 L 50.813 187.213 34.340 187.270 C 19.204 187.323,17.833 187.359,17.446 187.709 C 17.050 188.067,17.029 188.463,17.093 194.381 L 17.162 200.673 17.773 201.761 C 18.675 203.366,19.723 204.423,21.099 205.114 L 22.322 205.729 200.785 205.669 L 379.248 205.609 380.370 205.008 C 382.008 204.130,383.042 202.995,383.954 201.073 C 384.516 199.887,384.457 188.213,383.886 187.696 C 383.512 187.358,382.037 187.324,367.341 187.321 C 358.035 187.319,351.069 187.231,350.883 187.114 C 350.613 186.942,350.603 186.722,350.827 185.754 C 351.030 184.872,351.094 165.071,351.094 102.240 L 351.094 19.881 350.514 18.061 C 349.776 15.745,348.148 13.946,346.181 13.273 C 345.604 13.075,310.141 13.015,200.583 13.023 L 55.749 13.034 54.795 13.497 M346.569 14.095 C 346.856 14.383,347.386 14.721,347.746 14.846 C 348.107 14.972,348.402 15.170,348.402 15.287 C 348.402 15.404,348.666 15.764,348.988 16.087 C 349.311 16.410,349.690 16.986,349.830 17.367 C 350.017 17.878,350.096 40.282,350.130 102.748 L 350.175 187.437 350.691 187.714 C 351.086 187.927,355.007 187.992,367.527 187.994 L 383.847 187.998 383.847 194.191 L 383.847 200.384 383.287 201.050 C 382.978 201.417,382.726 201.916,382.726 202.159 C 382.726 202.416,382.443 202.761,382.052 202.983 C 381.682 203.193,381.325 203.529,381.261 203.730 C 381.147 204.081,380.412 204.346,378.239 204.818 C 376.057 205.291,23.193 205.103,21.669 204.627 C 20.804 204.357,20.193 204.007,19.912 203.621 C 19.674 203.295,19.337 203.029,19.162 203.029 C 18.988 203.029,18.845 202.850,18.845 202.633 C 18.845 202.415,18.540 201.612,18.168 200.849 L 17.491 199.462 17.551 193.786 L 17.611 188.110 34.212 187.998 C 43.343 187.936,50.939 187.804,51.094 187.704 C 51.317 187.559,51.374 170.344,51.374 102.862 C 51.374 47.755,51.451 17.998,51.595 17.619 C 51.717 17.299,52.070 16.763,52.381 16.429 C 52.691 16.094,52.944 15.695,52.944 15.541 C 52.944 15.387,53.289 15.117,53.710 14.941 C 54.131 14.765,54.679 14.418,54.927 14.170 C 55.607 13.490,47.262 13.526,201.346 13.550 L 346.046 13.573 346.569 14.095 M199.902 16.640 C 199.108 16.858,198.323 17.172,198.158 17.338 C 197.466 18.029,197.634 21.537,198.359 21.537 C 198.486 21.537,198.788 21.789,199.031 22.098 C 200.220 23.610,203.451 22.338,203.809 20.217 C 204.286 17.397,202.636 15.887,199.902 16.640 M202.969 17.963 C 203.910 19.814,202.620 22.210,200.683 22.210 C 197.983 22.210,197.194 17.589,199.821 17.159 C 200.290 17.083,200.824 16.994,201.010 16.961 C 201.612 16.856,202.686 17.405,202.969 17.963 M62.867 26.173 C 61.873 26.574,61.918 22.969,61.918 101.490 L 61.918 175.409 62.417 175.758 C 63.068 176.214,338.081 176.303,339.081 175.847 L 339.652 175.587 339.652 101.289 L 339.652 26.990 339.180 26.563 C 338.725 26.151,63.883 25.763,62.867 26.173 M338.306 26.921 C 338.753 27.368,338.755 27.669,338.755 101.408 L 338.755 175.446 338.179 175.665 C 337.356 175.978,63.835 175.964,63.249 175.651 C 62.640 175.325,62.556 27.840,63.165 26.971 L 63.514 26.472 200.686 26.472 C 337.558 26.472,337.859 26.473,338.306 26.921 M73.706 35.659 C 73.223 36.193,73.278 39.182,73.782 39.789 C 74.289 40.399,76.820 40.304,77.273 39.658 C 77.761 38.961,77.759 36.063,77.269 35.574 C 76.722 35.027,74.224 35.087,73.706 35.659 M81.594 35.619 C 81.079 36.188,81.056 38.938,81.561 39.658 C 81.907 40.153,81.955 40.157,88.189 40.157 L 94.468 40.157 95.019 39.606 C 95.717 38.908,95.841 36.175,95.199 35.642 C 94.533 35.089,82.093 35.068,81.594 35.619 M76.904 35.939 C 77.183 36.219,77.276 38.283,77.037 38.905 C 76.933 39.176,76.570 39.260,75.491 39.260 C 73.884 39.260,73.808 39.178,73.808 37.465 C 73.808 35.775,73.899 35.670,75.358 35.670 C 76.060 35.670,76.756 35.791,76.904 35.939 M94.096 35.889 C 94.867 36.182,94.978 38.631,94.238 39.027 C 93.453 39.447,81.961 39.334,81.796 38.905 C 81.612 38.425,81.623 36.007,81.810 35.820 C 82.048 35.582,93.457 35.646,94.096 35.889 M73.667 43.794 C 73.262 44.449,73.289 47.783,73.702 48.240 C 74.167 48.754,76.093 48.858,77.051 48.422 C 77.699 48.126,77.944 44.382,77.353 43.791 C 76.989 43.428,73.892 43.430,73.667 43.794 M81.444 43.956 C 81.030 44.730,81.149 48.025,81.604 48.370 C 82.029 48.692,113.450 48.810,115.536 48.497 L 116.545 48.345 116.610 46.248 C 116.652 44.894,116.582 44.039,116.414 43.836 C 115.938 43.262,81.752 43.380,81.444 43.956 M77.068 45.184 C 77.152 45.851,77.150 46.810,77.065 47.315 L 76.910 48.233 75.495 48.233 C 73.744 48.233,73.482 47.654,73.952 44.812 L 74.091 43.971 75.504 43.971 L 76.917 43.971 77.068 45.184 M115.775 44.203 C 116.148 44.403,116.209 44.685,116.209 46.212 L 116.209 47.989 115.480 48.119 C 115.079 48.190,107.330 48.220,98.261 48.185 L 81.772 48.121 81.700 46.999 C 81.661 46.383,81.692 45.449,81.770 44.924 L 81.912 43.971 98.626 43.971 C 109.719 43.971,115.487 44.049,115.775 44.203 M73.676 52.607 C 73.232 53.285,73.307 56.042,73.785 56.619 C 74.252 57.181,76.585 57.123,77.173 56.534 C 77.804 55.904,77.831 52.979,77.212 52.418 C 76.502 51.776,74.138 51.903,73.676 52.607 M81.583 52.457 C 81.051 53.045,81.072 55.779,81.613 56.482 L 82.005 56.991 104.930 56.931 C 131.359 56.861,128.533 57.164,128.533 54.403 C 128.533 51.771,131.298 52.047,104.946 52.047 C 82.957 52.047,81.938 52.065,81.583 52.457 M77.037 53.075 C 77.276 53.697,77.183 55.761,76.904 56.040 C 76.756 56.188,76.060 56.310,75.358 56.310 C 73.899 56.310,73.808 56.204,73.808 54.515 C 73.808 52.801,73.884 52.720,75.491 52.720 C 76.570 52.720,76.933 52.803,77.037 53.075 M127.830 52.912 C 128.497 53.336,128.075 55.951,127.314 56.113 C 125.615 56.475,81.937 56.322,81.796 55.955 C 81.612 55.475,81.623 53.057,81.810 52.870 C 82.028 52.651,127.485 52.693,127.830 52.912 M73.683 60.729 C 73.199 61.213,73.326 64.982,73.838 65.306 C 74.251 65.568,76.752 65.554,77.173 65.288 C 77.724 64.940,77.803 61.035,77.266 60.643 C 76.655 60.195,74.157 60.255,73.683 60.729 M81.604 60.590 C 81.066 60.903,81.033 64.256,81.561 65.009 L 81.910 65.508 99.014 65.508 C 112.019 65.508,116.183 65.443,116.388 65.238 C 116.753 64.873,116.753 60.982,116.388 60.617 C 116.035 60.264,82.209 60.238,81.604 60.590 M77.059 62.479 C 77.056 64.742,76.992 64.835,75.415 64.835 L 74.091 64.835 73.952 63.993 C 73.484 61.163,73.695 60.759,75.593 60.843 L 77.061 60.909 77.059 62.479 M116.162 62.649 C 116.251 65.020,117.748 64.835,98.499 64.835 L 81.941 64.835 81.800 64.133 C 81.614 63.202,81.621 61.135,81.811 60.945 C 81.894 60.862,89.642 60.819,99.029 60.851 L 116.096 60.909 116.162 62.649 M73.801 68.993 C 73.324 69.569,73.232 72.571,73.672 73.242 C 74.131 73.943,76.257 74.066,77.145 73.444 C 77.758 73.014,77.800 69.740,77.202 69.019 C 76.781 68.513,74.216 68.493,73.801 68.993 M81.554 69.310 C 81.040 70.303,81.088 72.954,81.628 73.442 C 82.200 73.960,115.660 73.908,116.286 73.388 C 116.574 73.149,116.657 72.683,116.657 71.313 C 116.657 68.358,118.601 68.648,98.828 68.648 L 81.896 68.648 81.554 69.310 M76.952 70.000 C 77.086 70.250,77.165 71.033,77.128 71.739 L 77.061 73.023 75.491 73.023 L 73.920 73.023 73.851 71.801 C 73.731 69.693,73.831 69.546,75.375 69.546 C 76.485 69.546,76.750 69.622,76.952 70.000 M115.508 69.686 L 116.209 69.826 116.209 71.482 L 116.209 73.138 98.990 73.080 L 81.772 73.023 81.703 71.801 C 81.665 71.129,81.692 70.347,81.763 70.062 L 81.893 69.546 98.350 69.546 C 107.401 69.546,115.122 69.609,115.508 69.686 M73.672 77.739 C 73.232 78.410,73.324 81.413,73.801 81.989 C 74.289 82.577,76.832 82.464,77.273 81.835 C 77.864 80.990,77.759 77.968,77.123 77.523 C 76.256 76.915,74.124 77.049,73.672 77.739 M81.583 77.584 C 81.091 78.127,81.072 80.741,81.554 81.671 L 81.896 82.333 88.147 82.333 C 95.547 82.333,95.360 82.389,95.523 80.131 C 95.737 77.174,95.744 77.176,87.808 77.175 C 82.421 77.173,81.924 77.206,81.583 77.584 M77.128 79.243 C 77.227 81.136,76.991 81.436,75.397 81.436 C 73.898 81.436,73.817 81.325,73.811 79.286 C 73.807 77.838,73.836 77.815,75.593 77.893 L 77.061 77.958 77.128 79.243 M94.628 79.274 C 94.743 81.507,94.963 81.436,87.931 81.436 C 81.133 81.436,81.660 81.604,81.660 79.436 C 81.660 77.717,81.165 77.832,88.263 77.899 L 94.560 77.958 94.628 79.274 M73.795 85.827 C 73.308 86.414,73.225 89.794,73.686 90.255 C 74.157 90.726,76.657 90.784,77.266 90.339 C 77.803 89.947,77.724 86.041,77.173 85.693 C 76.596 85.329,74.127 85.426,73.795 85.827 M81.561 85.973 C 81.091 86.643,81.070 89.851,81.532 90.313 C 82.025 90.806,104.358 90.791,104.767 90.297 C 105.169 89.813,104.971 85.964,104.529 85.685 C 104.347 85.569,99.364 85.479,93.058 85.477 L 81.910 85.474 81.561 85.973 M76.898 86.540 C 76.985 86.755,77.058 87.639,77.059 88.503 L 77.061 90.073 75.491 90.073 L 73.920 90.073 73.846 89.288 C 73.805 88.856,73.837 87.973,73.918 87.325 L 74.065 86.147 75.402 86.147 C 76.465 86.147,76.771 86.227,76.898 86.540 M104.435 86.876 C 104.510 87.277,104.539 88.160,104.501 88.839 L 104.431 90.073 93.102 90.073 L 81.772 90.073 81.700 89.063 C 81.660 88.508,81.691 87.625,81.770 87.100 L 81.912 86.147 93.105 86.147 L 104.298 86.147 104.435 86.876 M73.789 94.359 C 73.289 94.961,73.234 97.545,73.703 98.415 C 74.258 99.447,76.391 99.541,77.157 98.568 C 77.819 97.726,77.829 95.103,77.173 94.448 C 76.587 93.862,74.252 93.801,73.789 94.359 M81.583 94.633 C 81.091 95.177,81.072 97.790,81.554 98.721 L 81.896 99.383 87.857 99.383 C 95.524 99.383,95.564 99.368,95.563 96.467 C 95.562 94.264,95.423 94.223,87.810 94.223 C 82.422 94.223,81.924 94.256,81.583 94.633 M99.712 94.434 C 98.437 94.958,98.276 97.830,99.464 98.852 L 100.081 99.383 124.382 99.383 C 150.614 99.383,149.944 99.407,150.430 98.467 C 150.898 97.563,150.869 95.044,150.386 94.643 C 149.960 94.289,100.561 94.085,99.712 94.434 M157.726 94.645 C 157.425 95.208,157.414 98.040,157.711 98.820 L 157.935 99.408 164.460 99.340 C 172.106 99.259,171.623 99.437,171.617 96.704 C 171.612 94.147,172.187 94.346,164.577 94.267 C 158.170 94.201,157.958 94.212,157.726 94.645 M76.904 94.941 C 77.052 95.089,77.173 95.776,77.173 96.467 C 77.173 98.039,76.948 98.261,75.358 98.261 C 73.899 98.261,73.808 98.156,73.808 96.467 C 73.808 94.777,73.899 94.672,75.358 94.672 C 76.060 94.672,76.756 94.793,76.904 94.941 M94.628 96.324 C 94.743 98.557,94.963 98.486,87.933 98.486 L 81.937 98.486 81.802 97.981 C 81.617 97.291,81.625 95.231,81.813 95.042 C 81.897 94.958,84.800 94.916,88.263 94.949 L 94.560 95.008 94.628 96.324 M149.729 95.032 C 150.451 95.309,150.211 97.735,149.422 98.143 C 148.369 98.688,100.620 98.660,100.018 98.114 C 99.522 97.666,99.419 95.234,99.888 95.045 C 100.292 94.882,149.305 94.870,149.729 95.032 M171.125 96.474 L 171.190 97.940 170.436 98.213 C 169.917 98.401,167.861 98.486,163.835 98.486 L 157.988 98.486 157.853 97.981 C 157.668 97.291,157.676 95.231,157.865 95.042 C 157.949 94.958,160.952 94.916,164.539 94.949 L 171.060 95.008 171.125 96.474 M99.607 102.595 L 98.822 102.865 98.830 104.714 C 98.837 106.167,98.923 106.646,99.231 106.955 C 99.791 107.515,179.005 107.686,179.468 107.128 C 180.058 106.417,180.046 103.086,179.452 102.669 C 178.765 102.188,101.001 102.115,99.607 102.595 M73.583 102.861 C 73.216 103.303,73.383 106.835,73.795 107.331 C 74.195 107.813,76.328 107.807,77.069 107.321 C 77.699 106.908,77.922 103.362,77.353 102.793 C 76.943 102.384,73.934 102.438,73.583 102.861 M81.481 102.793 C 81.313 102.961,81.211 103.792,81.211 105.002 C 81.211 107.837,80.841 107.684,87.692 107.684 C 93.845 107.684,95.218 107.511,95.433 106.709 C 95.766 105.468,95.580 102.994,95.135 102.756 C 94.485 102.408,81.831 102.442,81.481 102.793 M187.036 102.680 C 186.681 102.772,186.643 103.027,186.700 104.934 L 186.764 107.084 187.549 107.367 C 189.055 107.909,199.948 107.789,200.459 107.224 C 201.004 106.621,201.076 103.069,200.550 102.736 C 200.226 102.532,187.805 102.480,187.036 102.680 M76.998 103.533 C 77.103 103.904,77.128 104.837,77.051 105.609 L 76.913 107.011 75.489 107.011 L 74.065 107.011 73.913 105.798 C 73.830 105.130,73.832 104.167,73.919 103.656 L 74.075 102.728 75.441 102.794 C 76.744 102.857,76.815 102.891,76.998 103.533 M94.319 103.101 C 94.743 103.525,94.800 105.586,94.412 106.439 L 94.151 107.011 88.046 107.011 L 81.941 107.011 81.800 106.310 C 81.621 105.415,81.619 103.565,81.796 103.103 C 82.001 102.569,93.786 102.567,94.319 103.101 M179.248 104.412 C 179.248 105.328,179.187 106.236,179.112 106.431 C 178.989 106.753,175.302 106.786,139.634 106.786 L 100.292 106.786 99.950 106.124 C 99.531 105.314,99.487 103.058,99.888 102.897 C 100.042 102.835,117.961 102.776,139.708 102.766 L 179.248 102.748 179.248 104.412 M200.224 104.879 L 200.224 106.898 194.167 106.958 C 187.118 107.028,187.549 107.180,187.549 104.629 C 187.549 102.620,186.917 102.789,194.279 102.828 L 200.224 102.860 200.224 104.879 M73.785 111.188 C 73.307 111.765,73.232 114.522,73.676 115.200 C 74.130 115.893,76.639 116.038,77.269 115.407 C 77.759 114.918,77.761 112.020,77.273 111.323 C 76.822 110.680,74.289 110.582,73.785 111.188 M81.568 111.313 C 81.034 112.075,81.072 114.891,81.622 115.389 C 82.159 115.875,93.951 115.947,94.896 115.470 C 95.675 115.078,95.849 112.341,95.150 111.477 L 94.712 110.937 88.318 110.871 L 81.924 110.805 81.568 111.313 M99.619 111.145 C 98.272 111.891,98.317 115.002,99.683 115.522 C 100.393 115.792,210.585 115.829,211.554 115.559 C 212.098 115.408,212.114 115.346,212.114 113.401 C 212.114 111.490,212.089 111.386,211.554 111.115 C 210.693 110.679,100.406 110.709,99.619 111.145 M216.174 111.297 C 215.300 111.984,215.366 115.017,216.265 115.470 C 217.181 115.933,228.903 115.877,229.373 115.407 C 229.862 114.918,229.864 112.020,229.376 111.323 C 228.844 110.563,217.136 110.540,216.174 111.297 M77.037 112.077 C 77.276 112.699,77.183 114.763,76.904 115.042 C 76.756 115.190,76.060 115.311,75.358 115.311 C 73.899 115.311,73.808 115.206,73.808 113.517 C 73.808 111.803,73.884 111.722,75.491 111.722 C 76.570 111.722,76.933 111.805,77.037 112.077 M94.238 111.954 C 94.592 112.144,94.672 112.431,94.672 113.517 C 94.672 115.355,94.837 115.311,87.868 115.311 C 81.195 115.311,81.660 115.446,81.660 113.517 C 81.660 111.587,81.195 111.722,87.868 111.722 C 91.531 111.722,93.970 111.811,94.238 111.954 M211.120 111.954 C 211.860 112.350,211.749 114.799,210.978 115.092 C 210.157 115.405,100.625 115.391,100.041 115.079 C 99.532 114.807,99.407 112.460,99.877 111.991 C 100.235 111.633,210.450 111.596,211.120 111.954 M229.232 113.256 C 229.334 115.419,229.665 115.311,222.900 115.311 C 216.189 115.311,216.489 115.402,216.489 113.378 C 216.489 111.617,215.949 111.746,223.107 111.794 L 229.164 111.834 229.232 113.256 M73.683 119.731 C 73.297 120.117,73.296 123.414,73.683 124.040 C 73.869 124.341,76.704 124.362,77.173 124.065 C 77.724 123.717,77.802 120.036,77.267 119.645 C 76.655 119.197,74.157 119.257,73.683 119.731 M81.604 119.592 C 81.132 119.867,81.039 122.764,81.472 123.714 L 81.732 124.285 137.754 124.285 C 189.584 124.285,193.799 124.257,194.083 123.914 C 194.600 123.291,194.651 120.012,194.150 119.646 C 193.631 119.266,82.254 119.213,81.604 119.592 M77.133 120.915 C 77.172 121.467,77.142 122.250,77.066 122.653 L 76.929 123.388 75.505 123.388 C 73.857 123.388,73.808 123.330,73.808 121.388 C 73.808 119.774,73.817 119.766,75.593 119.845 L 77.061 119.910 77.133 120.915 M193.718 121.593 L 193.718 123.275 137.871 123.332 C 93.341 123.377,81.988 123.332,81.845 123.108 C 81.629 122.767,81.600 120.158,81.810 119.947 C 81.893 119.865,107.106 119.823,137.839 119.854 L 193.718 119.910 193.718 121.593 M73.815 127.754 C 73.426 128.223,73.236 131.487,73.562 132.097 C 73.892 132.713,76.910 132.837,77.393 132.254 C 77.865 131.686,77.614 128.138,77.074 127.744 C 76.482 127.311,74.177 127.318,73.815 127.754 M81.642 127.784 C 81.167 128.356,81.059 131.955,81.506 132.326 C 82.044 132.773,95.056 132.595,95.362 132.137 C 95.747 131.560,95.516 128.398,95.055 127.937 C 94.452 127.333,82.133 127.192,81.642 127.784 M99.793 127.681 C 98.645 128.101,98.205 131.533,99.209 132.236 C 100.002 132.792,193.617 132.767,194.173 132.211 C 194.720 131.664,194.569 128.567,193.963 127.897 L 193.537 127.426 146.965 127.443 C 117.204 127.455,100.176 127.540,99.793 127.681 M76.964 128.925 C 77.090 129.256,77.164 130.089,77.127 130.776 L 77.061 132.025 75.491 132.025 L 73.920 132.025 73.847 131.127 C 73.807 130.634,73.839 129.801,73.917 129.277 L 74.060 128.323 75.398 128.323 C 76.643 128.323,76.752 128.365,76.964 128.925 M94.262 128.694 C 94.577 128.979,94.672 129.395,94.672 130.485 C 94.672 132.276,95.148 132.166,87.717 132.088 L 81.772 132.025 81.702 130.904 C 81.663 130.287,81.693 129.454,81.768 129.053 L 81.905 128.323 87.878 128.323 C 93.121 128.323,93.902 128.368,94.262 128.694 M193.723 129.053 C 193.798 129.454,193.828 130.287,193.789 130.904 L 193.718 132.025 147.168 132.086 C 121.565 132.120,100.390 132.093,100.112 132.026 C 99.477 131.873,99.370 129.659,99.957 128.822 L 100.306 128.323 146.946 128.323 L 193.586 128.323 193.723 129.053 M73.676 136.735 C 73.232 137.413,73.307 140.170,73.785 140.746 C 74.289 141.353,76.822 141.255,77.273 140.612 C 77.799 139.860,77.757 137.040,77.212 136.546 C 76.502 135.904,74.138 136.030,73.676 136.735 M81.583 136.585 C 81.073 137.148,81.067 139.785,81.574 140.558 L 81.936 141.110 115.421 141.110 C 151.034 141.110,150.125 141.132,150.507 140.292 C 150.981 139.253,150.827 136.922,150.259 136.524 C 149.422 135.938,82.114 135.998,81.583 136.585 M77.131 138.067 C 77.258 140.071,77.151 140.213,75.510 140.213 C 73.870 140.213,73.808 140.145,73.808 138.325 C 73.808 136.835,73.831 136.817,75.593 136.895 L 77.061 136.960 77.131 138.067 M149.729 136.984 C 150.001 137.089,150.084 137.453,150.084 138.544 L 150.084 139.968 149.355 140.098 C 148.954 140.170,133.584 140.199,115.199 140.165 L 81.772 140.101 81.704 138.780 C 81.667 138.054,81.689 137.322,81.753 137.154 C 81.875 136.835,148.906 136.668,149.729 136.984 M73.578 145.051 C 73.226 145.979,73.308 148.565,73.709 149.137 C 74.153 149.771,76.678 149.874,77.269 149.283 C 77.711 148.841,77.779 145.171,77.353 144.745 C 76.771 144.163,73.825 144.402,73.578 145.051 M81.481 144.745 C 81.013 145.212,81.126 148.815,81.622 149.264 C 82.232 149.816,138.029 149.838,138.817 149.286 C 139.374 148.896,139.562 145.803,139.084 144.910 C 138.796 144.372,82.016 144.209,81.481 144.745 M146.594 144.794 C 145.977 145.245,145.950 148.512,146.558 149.122 C 147.242 149.808,159.287 149.855,159.967 149.175 C 160.569 148.573,160.559 145.077,159.955 144.695 C 159.370 144.325,147.111 144.416,146.594 144.794 M77.049 145.934 C 77.133 146.489,77.133 147.398,77.049 147.953 L 76.898 148.962 75.485 148.962 L 74.072 148.962 73.920 148.061 C 73.836 147.565,73.836 146.656,73.921 146.042 L 74.075 144.924 75.486 144.924 L 76.898 144.924 77.049 145.934 M138.743 145.934 C 138.826 146.489,138.826 147.398,138.743 147.953 L 138.592 148.962 110.264 148.962 L 81.937 148.962 81.802 148.458 C 81.727 148.180,81.666 147.499,81.666 146.943 C 81.666 146.388,81.727 145.707,81.802 145.429 L 81.937 144.924 110.264 144.924 L 138.592 144.924 138.743 145.934 M159.626 145.436 C 159.697 145.717,159.724 146.601,159.687 147.399 L 159.619 148.850 153.422 148.910 L 147.225 148.969 147.084 148.265 C 146.880 147.246,146.911 146.160,147.162 145.500 L 147.381 144.924 153.439 144.924 L 159.498 144.924 159.626 145.436 M73.744 153.428 C 72.531 155.482,73.443 157.936,75.419 157.936 C 77.243 157.936,77.622 157.492,77.622 155.356 C 77.622 153.209,77.247 152.776,75.385 152.776 C 74.237 152.776,74.096 152.832,73.744 153.428 M81.574 153.329 C 81.333 153.696,81.211 154.377,81.211 155.356 C 81.211 156.335,81.333 157.016,81.574 157.383 L 81.936 157.936 95.672 157.936 C 111.620 157.936,110.151 158.189,110.151 155.444 C 110.151 154.295,110.042 153.618,109.802 153.275 L 109.453 152.776 95.695 152.776 L 81.936 152.776 81.574 153.329 M77.037 154.028 C 77.276 154.651,77.183 156.715,76.904 156.994 C 76.756 157.142,76.060 157.263,75.358 157.263 C 73.899 157.263,73.808 157.158,73.808 155.468 C 73.808 153.755,73.884 153.674,75.491 153.674 C 76.570 153.674,76.933 153.757,77.037 154.028 M109.658 153.943 C 110.035 154.320,110.007 156.693,109.622 157.013 C 109.400 157.197,105.530 157.251,95.544 157.209 L 81.772 157.151 81.703 155.929 C 81.665 155.257,81.692 154.475,81.763 154.190 L 81.893 153.674 95.641 153.674 C 106.034 153.674,109.454 153.739,109.658 153.943 M73.686 161.680 C 73.225 162.141,73.308 165.521,73.795 166.108 C 74.289 166.704,76.828 166.598,77.273 165.962 C 77.829 165.168,77.766 161.843,77.188 161.533 C 76.464 161.146,74.122 161.244,73.686 161.680 M81.604 161.543 C 81.066 161.857,81.033 165.209,81.561 165.962 L 81.910 166.461 93.213 166.461 C 101.932 166.461,104.556 166.398,104.687 166.184 C 105.104 165.511,105.067 161.912,104.641 161.600 C 104.125 161.222,82.248 161.169,81.604 161.543 M77.127 163.224 C 77.234 165.437,76.999 165.788,75.412 165.788 C 73.904 165.788,73.808 165.634,73.808 163.217 C 73.808 161.738,73.833 161.718,75.593 161.797 L 77.061 161.862 77.127 163.224 M104.501 163.096 C 104.539 163.775,104.510 164.658,104.435 165.059 L 104.298 165.788 93.119 165.788 L 81.941 165.788 81.800 165.087 C 81.614 164.154,81.621 162.088,81.812 161.897 C 81.895 161.814,87.019 161.772,93.197 161.804 L 104.431 161.862 104.501 163.096 M183.062 193.528 C 182.384 193.700,181.608 193.890,181.339 193.949 C 181.069 194.008,180.777 194.281,180.690 194.556 C 180.603 194.831,180.332 195.326,180.088 195.656 L 179.644 196.256 180.322 197.690 C 181.408 199.989,179.361 199.767,200.155 199.838 C 220.494 199.907,219.822 199.951,220.864 198.481 C 221.910 197.006,221.962 196.386,221.144 195.123 C 220.427 194.017,220.320 193.961,217.835 193.398 C 216.160 193.018,184.605 193.136,183.062 193.528 M219.494 194.270 C 221.336 194.971,221.130 198.095,219.175 199.106 C 218.125 199.649,183.159 199.603,182.209 199.057 C 180.442 198.043,180.196 195.077,181.819 194.370 C 182.659 194.004,218.544 193.909,219.494 194.270 " stroke="none" fill="#288e5f" fill-rule="evenodd"></path><path id="path4" d="M54.799 12.727 C 54.161 12.785,53.743 12.965,53.525 13.276 C 53.346 13.531,52.966 13.856,52.680 13.998 C 52.393 14.141,52.128 14.471,52.091 14.733 C 52.053 14.995,51.818 15.263,51.569 15.328 C 51.320 15.393,51.058 15.670,50.987 15.943 C 50.915 16.216,50.595 16.905,50.274 17.474 L 49.692 18.508 49.579 102.299 L 49.467 186.091 33.633 186.148 L 17.798 186.206 17.256 186.784 L 16.713 187.361 16.713 194.619 L 16.713 201.878 17.330 202.521 C 17.670 202.876,17.947 203.267,17.947 203.391 C 17.947 203.738,19.269 205.010,19.807 205.180 C 20.070 205.264,20.474 205.571,20.703 205.863 L 21.121 206.394 200.561 206.394 L 380.001 206.394 380.432 205.846 C 380.669 205.544,381.126 205.232,381.448 205.151 C 382.022 205.007,384.261 202.707,384.561 201.954 C 385.021 200.797,384.751 187.539,384.254 186.867 L 383.763 186.203 367.877 186.203 L 351.991 186.203 351.990 102.804 C 351.988 16.754,352.003 18.179,351.102 17.162 C 350.883 16.915,350.636 16.425,350.552 16.073 C 350.469 15.720,350.225 15.386,350.011 15.330 C 349.796 15.274,349.490 14.932,349.329 14.569 C 349.152 14.170,348.867 13.909,348.607 13.909 C 348.371 13.909,348.177 13.815,348.177 13.701 C 348.177 13.222,347.430 12.789,346.647 12.814 C 345.922 12.837,345.894 12.858,346.411 12.982 C 347.485 13.240,350.407 15.848,350.417 16.557 C 350.419 16.718,350.648 17.324,350.925 17.904 L 351.430 18.957 351.485 102.846 C 351.529 169.852,351.597 186.772,351.822 186.915 C 351.976 187.013,359.260 187.095,368.007 187.097 C 382.887 187.100,383.929 187.126,384.208 187.493 C 384.440 187.798,384.508 189.357,384.513 194.511 L 384.520 201.137 383.737 202.353 C 383.306 203.023,382.800 203.656,382.613 203.760 C 382.426 203.865,382.026 204.198,381.724 204.499 C 381.423 204.801,381.051 205.048,380.900 205.048 C 380.748 205.048,380.382 205.275,380.086 205.552 L 379.549 206.057 200.561 206.057 L 21.573 206.057 21.036 205.552 C 20.740 205.275,20.381 205.048,20.238 205.048 C 19.919 205.048,17.947 203.104,17.947 202.789 C 17.947 202.664,17.720 202.255,17.443 201.880 C 16.833 201.056,16.514 188.663,17.075 187.615 L 17.350 187.100 33.564 187.100 C 43.424 187.100,49.828 187.018,49.907 186.890 C 49.979 186.774,50.034 149.190,50.030 103.370 L 50.023 20.061 50.588 18.173 C 50.923 17.055,51.381 16.047,51.712 15.702 C 52.020 15.381,52.275 15.023,52.280 14.906 C 52.285 14.790,52.865 14.291,53.570 13.797 L 54.851 12.900 200.337 12.787 L 345.822 12.674 200.785 12.658 C 121.015 12.649,55.321 12.680,54.799 12.727 M199.068 18.049 C 198.373 18.744,198.309 18.910,198.448 19.650 C 198.993 22.555,203.218 22.257,202.976 19.331 C 202.796 17.162,200.657 16.460,199.068 18.049 M202.098 18.174 C 202.964 19.001,203.146 20.639,202.372 20.639 C 202.134 20.639,201.788 20.791,201.602 20.976 C 201.114 21.465,200.051 21.401,199.716 20.864 C 199.561 20.617,199.297 20.415,199.129 20.415 C 198.423 20.415,198.514 19.086,199.275 18.289 C 200.234 17.285,201.129 17.248,202.098 18.174 M63.286 27.627 C 62.915 28.692,62.938 175.018,63.309 175.390 C 63.595 175.675,337.209 175.808,337.951 175.523 C 338.387 175.356,338.508 28.167,338.074 27.355 C 337.845 26.927,336.058 26.921,200.687 26.921 L 63.532 26.921 63.286 27.627 M337.940 28.099 C 338.015 28.376,338.077 61.590,338.079 101.907 L 338.082 175.210 200.785 175.210 L 63.489 175.210 63.489 101.552 C 63.489 61.039,63.556 27.826,63.638 27.744 C 63.720 27.661,125.442 27.594,200.796 27.594 L 337.805 27.594 337.940 28.099 M73.441 34.717 C 72.905 35.507,72.821 40.069,73.331 40.684 C 73.656 41.075,77.001 41.234,77.538 40.883 C 79.042 39.900,79.243 36.341,77.873 34.971 C 76.693 33.791,74.167 33.646,73.441 34.717 M81.228 34.691 C 80.972 35.016,80.763 35.420,80.763 35.588 C 80.763 35.757,80.662 35.895,80.538 35.895 C 79.931 35.895,80.519 39.883,81.257 40.772 C 81.435 40.988,83.100 41.054,88.281 41.054 C 96.655 41.054,96.095 41.280,96.205 37.862 L 96.281 35.526 95.469 34.813 L 94.656 34.100 88.174 34.100 L 81.693 34.100 81.228 34.691 M77.543 35.347 C 78.257 36.060,78.267 38.920,77.561 39.999 C 77.078 40.736,74.132 40.930,73.577 40.261 C 72.925 39.475,73.021 35.816,73.712 35.125 C 74.339 34.498,76.839 34.643,77.543 35.347 M95.441 35.334 C 95.996 36.069,95.926 39.576,95.345 40.157 C 94.607 40.895,81.857 40.850,81.336 40.107 C 80.763 39.289,80.846 35.811,81.453 35.204 C 82.161 34.497,94.898 34.615,95.441 35.334 M73.382 43.276 C 72.767 43.891,72.678 47.801,73.260 48.632 C 73.761 49.347,76.849 49.368,77.988 48.664 L 78.744 48.197 78.744 46.123 C 78.744 43.331,78.431 42.997,75.719 42.883 C 74.063 42.814,73.799 42.858,73.382 43.276 M81.384 43.003 C 80.180 43.318,80.013 47.924,81.171 48.850 C 81.629 49.217,115.991 49.263,116.672 48.898 C 117.445 48.485,117.321 43.369,116.531 43.068 C 115.962 42.852,82.199 42.789,81.384 43.003 M77.386 43.468 C 77.905 43.888,78.290 46.654,77.994 47.834 C 77.735 48.868,74.778 49.358,73.634 48.557 C 72.916 48.054,72.878 44.228,73.584 43.522 C 74.192 42.914,76.659 42.879,77.386 43.468 M116.666 43.522 C 117.188 44.332,116.816 48.537,116.209 48.706 C 114.903 49.068,82.014 48.927,81.486 48.557 C 80.722 48.022,80.726 43.955,81.491 43.419 C 82.237 42.896,116.328 42.997,116.666 43.522 M73.636 51.113 C 72.533 51.813,72.704 57.289,73.848 57.902 C 74.707 58.361,77.113 58.053,77.711 57.407 C 79.308 55.686,79.105 52.230,77.343 51.111 C 76.975 50.878,74.004 50.879,73.636 51.113 M81.397 51.158 C 81.191 51.278,80.956 51.678,80.875 52.046 C 80.794 52.414,80.635 52.773,80.521 52.843 C 80.241 53.016,80.256 55.799,80.538 55.973 C 80.662 56.049,80.763 56.312,80.763 56.557 C 80.763 56.802,81.013 57.254,81.319 57.560 L 81.876 58.116 104.980 58.054 C 126.812 57.996,128.105 57.970,128.483 57.592 C 129.109 56.966,129.080 51.706,128.448 51.244 C 127.916 50.855,82.060 50.771,81.397 51.158 M76.961 51.605 C 78.320 52.332,78.499 56.154,77.221 57.125 C 77.006 57.288,76.234 57.420,75.469 57.424 C 73.491 57.434,73.247 57.103,73.247 54.403 C 73.247 51.759,73.510 51.374,75.316 51.374 C 75.984 51.374,76.724 51.478,76.961 51.605 M128.363 52.041 C 129.011 52.841,128.899 56.559,128.211 57.078 C 127.395 57.694,82.142 57.593,81.478 56.974 C 80.763 56.308,80.747 52.861,81.455 51.961 L 81.923 51.366 104.919 51.426 L 127.914 51.486 128.363 52.041 M73.244 60.271 C 72.664 60.851,72.839 65.410,73.458 65.863 C 74.055 66.298,76.771 66.284,77.626 65.842 C 78.572 65.353,78.744 64.872,78.744 62.715 L 78.744 60.790 78.015 60.345 C 77.037 59.749,73.816 59.698,73.244 60.271 M80.864 60.493 C 79.946 61.483,80.257 65.092,81.328 65.875 C 82.000 66.366,115.903 66.324,116.607 65.831 C 117.191 65.422,117.382 60.713,116.837 60.168 C 116.632 59.963,112.363 59.899,98.991 59.899 L 81.414 59.899 80.864 60.493 M77.653 60.603 C 78.192 61.143,78.159 64.749,77.608 65.412 C 77.205 65.898,73.968 65.858,73.555 65.361 C 73.060 64.766,72.992 60.972,73.467 60.496 C 74.069 59.894,77.019 59.970,77.653 60.603 M116.448 60.356 C 116.971 60.636,117.111 64.965,116.612 65.463 C 116.256 65.819,82.085 65.855,81.421 65.500 C 80.797 65.165,80.761 60.726,81.380 60.366 C 81.927 60.047,115.853 60.037,116.448 60.356 M73.123 68.917 C 72.670 70.599,72.925 73.686,73.562 74.238 C 74.351 74.922,76.632 74.903,77.536 74.206 C 78.699 73.308,78.758 73.149,78.693 71.078 C 78.605 68.277,78.290 67.975,75.460 67.975 L 73.377 67.975 73.123 68.917 M80.995 68.409 C 80.867 68.648,80.763 69.046,80.763 69.293 C 80.763 69.541,80.662 69.806,80.538 69.882 C 80.218 70.080,80.261 72.597,80.595 73.194 C 80.749 73.470,81.069 73.923,81.307 74.201 L 81.738 74.706 98.934 74.706 L 116.130 74.706 116.618 74.186 C 117.163 73.606,117.354 69.306,116.874 68.409 C 116.647 67.986,116.211 67.975,98.934 67.975 C 81.657 67.975,81.222 67.986,80.995 68.409 M77.178 68.427 C 78.296 69.025,78.394 73.136,77.308 73.861 C 76.669 74.288,73.843 74.046,73.484 73.534 C 72.843 72.619,73.118 68.858,73.860 68.387 C 74.267 68.129,76.675 68.157,77.178 68.427 M116.532 68.698 C 117.031 69.411,117.029 73.180,116.529 73.680 C 115.992 74.217,81.877 74.217,81.340 73.680 C 80.807 73.148,80.838 69.375,81.380 68.697 L 81.772 68.206 98.978 68.203 L 116.183 68.200 116.532 68.698 M73.860 76.426 C 72.548 76.954,72.555 82.738,73.868 83.090 C 75.577 83.548,77.573 83.106,78.236 82.122 C 78.763 81.341,78.980 78.341,78.558 77.677 C 77.839 76.544,75.268 75.860,73.860 76.426 M81.421 76.782 C 80.263 77.794,80.053 79.281,80.718 81.744 C 81.094 83.136,80.995 83.112,86.662 83.191 C 96.276 83.326,96.242 83.339,96.242 79.702 C 96.242 76.309,96.169 76.278,87.942 76.278 C 82.101 76.278,81.987 76.287,81.421 76.782 M77.646 77.332 C 78.319 78.005,78.129 81.602,77.381 82.349 C 76.848 82.883,74.370 82.966,73.694 82.472 C 72.988 81.955,72.902 78.080,73.582 77.400 C 74.138 76.843,77.108 76.794,77.646 77.332 M95.121 77.238 C 95.718 77.540,96.014 79.823,95.685 81.596 C 95.487 82.669,94.759 82.779,87.886 82.781 C 80.565 82.782,80.987 82.966,80.987 79.769 C 80.987 78.145,81.069 77.572,81.340 77.301 C 81.809 76.832,94.202 76.775,95.121 77.238 M73.472 85.103 C 72.878 85.546,72.781 90.497,73.360 90.863 C 74.070 91.312,77.507 91.125,78.173 90.601 C 79.021 89.935,78.984 86.286,78.121 85.424 C 77.463 84.767,74.222 84.543,73.472 85.103 M81.391 84.953 C 80.421 85.209,79.964 89.288,80.778 90.431 L 81.242 91.082 93.109 91.082 C 106.923 91.082,105.440 91.458,105.440 87.956 C 105.440 84.470,106.718 84.796,93.158 84.827 C 86.896 84.841,81.601 84.898,81.391 84.953 M77.536 85.516 C 78.174 86.154,78.260 89.772,77.651 90.380 C 77.034 90.998,74.069 91.087,73.488 90.506 C 72.794 89.812,73.095 85.725,73.878 85.189 C 74.349 84.866,77.136 85.116,77.536 85.516 M104.767 85.474 C 105.275 85.982,105.432 89.586,104.984 90.424 C 104.714 90.927,82.342 91.119,81.421 90.626 C 81.037 90.420,80.987 90.139,80.987 88.158 C 80.987 84.703,79.743 85.025,93.102 85.025 C 104.019 85.025,104.331 85.037,104.767 85.474 M73.600 93.310 C 73.054 93.856,72.824 95.361,72.961 97.496 C 73.110 99.810,73.365 100.056,75.618 100.056 L 77.359 100.056 78.051 99.115 C 79.305 97.409,78.929 94.334,77.329 93.214 C 76.590 92.696,74.151 92.759,73.600 93.310 M81.307 93.831 C 80.049 95.301,79.972 96.802,81.011 99.551 L 81.202 100.056 88.239 100.056 C 96.732 100.056,96.091 100.317,96.206 96.816 L 96.281 94.520 95.571 93.923 L 94.862 93.326 88.300 93.326 C 81.773 93.326,81.736 93.329,81.307 93.831 M99.271 93.538 C 97.915 94.093,97.401 98.800,98.598 99.703 C 99.341 100.264,150.467 100.225,150.894 99.663 C 151.470 98.904,151.311 94.400,150.687 93.814 L 150.167 93.326 124.943 93.340 C 111.070 93.348,99.518 93.437,99.271 93.538 M157.324 93.935 C 156.823 94.701,156.766 99.121,157.249 99.703 C 157.792 100.357,171.480 100.221,171.945 99.557 C 172.521 98.735,172.438 94.691,171.829 93.917 L 171.364 93.326 164.543 93.326 L 157.722 93.326 157.324 93.935 M77.386 94.038 C 78.303 95.023,78.295 98.092,77.372 99.074 C 76.693 99.796,74.329 99.858,73.706 99.170 C 72.948 98.332,72.959 94.656,73.721 93.894 C 74.291 93.324,76.813 93.423,77.386 94.038 M95.295 94.348 C 95.994 94.838,96.045 98.350,95.365 99.190 L 94.936 99.720 88.467 99.778 C 80.588 99.848,81.131 100.055,81.023 96.942 C 80.914 93.767,80.343 93.999,88.244 93.999 C 93.811 93.999,94.871 94.051,95.295 94.348 M150.571 94.370 C 151.182 94.923,151.169 98.429,150.553 99.190 L 150.124 99.720 125.412 99.780 C 98.439 99.847,99.118 99.877,98.581 98.592 C 97.897 96.956,98.244 94.622,99.229 94.225 C 100.253 93.812,150.111 93.953,150.571 94.370 M171.751 94.556 C 172.035 94.989,172.098 95.536,172.037 97.016 C 171.917 99.892,172.418 99.706,164.562 99.791 L 157.966 99.862 157.559 99.240 C 157.041 98.450,156.969 94.961,157.459 94.371 C 157.733 94.039,158.511 93.999,164.576 93.999 L 171.386 93.999 171.751 94.556 M73.360 102.070 C 72.741 102.461,72.743 107.067,73.362 107.686 C 74.098 108.422,77.308 108.281,78.165 107.476 C 78.752 106.925,79.050 103.536,78.572 102.847 C 77.936 101.931,74.412 101.406,73.360 102.070 M81.171 102.131 C 79.934 103.120,80.105 107.445,81.400 107.937 C 82.608 108.396,95.561 108.082,95.924 107.585 C 96.463 106.847,96.365 102.871,95.794 102.299 C 95.237 101.743,81.849 101.589,81.171 102.131 M98.710 102.141 C 98.172 102.413,98.147 102.519,98.086 104.806 C 98.011 107.611,98.121 107.806,99.888 108.014 C 102.432 108.314,179.657 108.038,179.966 107.729 C 180.414 107.281,180.375 102.357,179.921 102.070 C 179.365 101.719,99.409 101.788,98.710 102.141 M186.496 102.078 C 185.692 102.401,185.460 107.030,186.210 107.781 C 186.366 107.937,188.892 108.044,193.505 108.088 L 200.560 108.156 201.111 107.562 C 202.172 106.417,202.188 103.380,201.137 102.406 L 200.538 101.851 193.763 101.865 C 190.037 101.873,186.767 101.968,186.496 102.078 M77.531 102.549 C 78.226 103.318,78.147 106.897,77.423 107.484 C 76.660 108.102,74.211 108.086,73.584 107.459 C 72.994 106.869,72.923 103.376,73.484 102.574 C 73.992 101.848,76.883 101.830,77.531 102.549 M95.121 102.365 C 95.859 102.738,96.112 106.916,95.431 107.482 C 94.827 107.983,82.279 108.071,81.528 107.579 C 80.827 107.120,80.697 103.217,81.358 102.485 C 81.832 101.963,94.111 101.855,95.121 102.365 M179.797 102.511 C 180.290 103.055,180.236 106.699,179.726 107.313 C 179.193 107.955,99.402 107.875,98.820 107.232 C 97.818 106.125,98.120 102.752,99.263 102.289 C 100.400 101.828,179.376 102.045,179.797 102.511 M200.743 102.533 C 201.177 102.937,201.234 103.221,201.234 105.000 C 201.234 108.128,201.709 107.947,193.729 107.864 C 185.709 107.781,186.203 107.980,186.203 104.834 L 186.203 102.727 186.932 102.410 C 188.255 101.834,200.107 101.940,200.743 102.533 M73.362 110.260 C 73.031 110.659,72.788 114.023,73.006 115.185 C 73.381 117.187,76.216 117.668,77.873 116.011 C 79.196 114.687,79.150 111.937,77.779 110.432 C 77.202 109.798,73.854 109.668,73.362 110.260 M81.257 110.209 C 79.915 111.825,80.174 115.862,81.671 116.663 C 81.978 116.827,84.255 116.884,88.645 116.838 L 95.164 116.769 95.714 116.096 C 96.445 115.201,96.437 111.209,95.703 110.399 C 95.178 109.820,81.726 109.643,81.257 110.209 M98.502 110.518 C 97.763 111.458,97.812 115.331,98.573 116.092 C 99.405 116.924,97.570 116.901,156.217 116.833 L 211.817 116.769 212.377 116.118 C 213.034 115.354,213.110 111.056,212.480 110.297 C 212.195 109.955,207.901 109.927,155.569 109.927 L 98.967 109.927 98.502 110.518 M215.351 110.344 C 214.898 110.711,214.824 111.008,214.738 112.811 C 214.547 116.805,214.441 116.751,222.607 116.838 L 229.062 116.907 229.955 116.006 C 231.183 114.765,231.284 112.392,230.172 110.858 L 229.498 109.927 222.682 109.927 C 216.372 109.927,215.827 109.958,215.351 110.344 M77.561 110.983 C 78.219 111.988,78.130 115.212,77.429 115.780 C 76.884 116.221,74.440 116.399,73.898 116.037 C 73.101 115.505,72.844 112.629,73.460 111.154 L 73.785 110.376 75.474 110.376 C 77.062 110.376,77.187 110.412,77.561 110.983 M95.345 110.824 C 95.820 111.299,96.018 114.835,95.606 115.484 C 95.038 116.379,82.409 116.618,81.478 115.751 C 80.847 115.163,80.747 111.716,81.336 110.874 C 81.857 110.132,94.607 110.086,95.345 110.824 M211.932 110.552 C 212.765 111.082,212.989 114.650,212.246 115.567 L 211.818 116.096 156.329 116.161 C 97.809 116.228,99.630 116.252,98.797 115.419 C 97.830 114.451,98.250 110.822,99.364 110.523 C 100.008 110.350,211.660 110.379,211.932 110.552 M229.664 110.983 C 230.371 112.061,230.360 114.921,229.646 115.635 L 229.073 116.209 222.949 116.208 C 217.569 116.208,216.730 116.160,216.040 115.816 L 215.255 115.423 215.190 113.459 C 215.130 111.621,215.161 111.459,215.685 110.935 L 216.244 110.376 222.755 110.376 L 229.266 110.376 229.664 110.983 M73.652 118.890 C 72.842 119.238,72.580 124.044,73.331 124.795 C 73.934 125.397,77.310 125.148,78.009 124.448 C 78.953 123.505,79.081 120.189,78.205 119.369 C 77.565 118.769,74.646 118.462,73.652 118.890 M81.547 118.827 C 79.930 119.151,79.969 124.358,81.594 124.975 C 82.468 125.308,193.302 125.223,194.273 124.889 C 195.328 124.527,195.619 123.835,195.615 121.705 C 195.610 119.637,195.422 119.276,194.160 118.926 C 193.313 118.691,82.713 118.594,81.547 118.827 M77.676 119.583 C 78.266 120.308,78.143 123.585,77.499 124.297 C 76.970 124.882,74.034 124.939,73.565 124.374 C 72.984 123.675,72.997 119.936,73.582 119.351 C 74.321 118.612,77.010 118.764,77.676 119.583 M194.549 119.574 C 195.158 120.326,195.054 123.553,194.397 124.279 C 193.812 124.926,82.111 125.008,81.397 124.362 C 80.723 123.752,80.794 119.735,81.488 119.249 C 81.939 118.933,87.522 118.904,138.041 118.956 L 194.095 119.013 194.549 119.574 M73.663 127.004 C 72.749 127.469,72.531 131.982,73.382 132.833 C 74.045 133.495,77.040 133.390,77.999 132.671 C 78.959 131.951,78.968 128.444,78.014 127.491 C 77.325 126.803,74.648 126.503,73.663 127.004 M81.445 127.031 C 80.257 127.649,79.924 131.447,80.960 132.556 L 81.639 133.283 88.469 133.215 C 96.792 133.131,96.242 133.351,96.242 130.108 C 96.242 128.293,96.170 127.835,95.814 127.394 L 95.385 126.865 88.691 126.804 C 83.586 126.758,81.866 126.811,81.445 127.031 M99.313 126.981 C 98.117 127.340,98.037 127.528,98.040 129.977 C 98.044 132.553,98.111 132.734,99.173 133.038 C 100.609 133.450,193.453 133.328,194.447 132.913 C 195.550 132.452,195.618 132.302,195.622 130.301 C 195.626 128.148,195.418 127.591,194.432 127.124 C 193.566 126.713,100.670 126.573,99.313 126.981 M77.495 127.634 C 78.082 128.283,78.266 131.469,77.760 132.240 C 77.229 133.051,73.765 133.120,73.342 132.328 C 72.997 131.685,73.170 128.036,73.567 127.558 C 74.031 126.999,76.972 127.055,77.495 127.634 M95.121 127.491 C 95.763 127.816,96.107 131.825,95.550 132.496 C 95.197 132.922,81.679 132.964,81.256 132.541 C 80.815 132.100,80.898 128.121,81.358 127.612 C 81.832 127.089,94.111 126.981,95.121 127.491 M194.272 127.599 C 194.958 128.155,195.214 131.367,194.642 132.240 L 194.269 132.810 146.714 132.810 C 99.458 132.810,99.156 132.807,98.710 132.361 C 97.852 131.503,98.238 127.827,99.229 127.428 C 100.316 126.989,193.727 127.158,194.272 127.599 M73.421 135.661 C 72.923 136.422,72.843 140.684,73.311 141.503 C 74.068 142.827,77.918 142.073,78.541 140.479 C 79.218 138.745,78.606 136.177,77.289 135.225 C 76.608 134.732,73.823 135.046,73.421 135.661 M81.521 135.225 C 80.652 135.796,79.848 139.674,80.513 140.085 C 80.622 140.153,80.777 140.553,80.856 140.974 C 81.062 142.075,78.784 142.008,116.102 142.008 L 150.507 142.008 150.857 141.509 C 151.435 140.683,151.351 136.420,150.741 135.644 L 150.276 135.053 116.024 135.057 C 97.186 135.059,81.659 135.134,81.521 135.225 M77.407 136.138 C 78.374 136.920,78.292 140.237,77.281 141.248 C 76.449 142.079,74.208 142.035,73.645 141.176 C 73.040 140.252,73.067 136.495,73.683 136.045 C 74.344 135.561,76.770 135.622,77.407 136.138 M149.724 135.940 C 150.205 136.051,150.688 136.276,150.798 136.439 C 151.078 136.855,150.924 140.809,150.616 141.117 C 150.012 141.720,147.191 141.773,115.271 141.778 L 81.917 141.784 81.452 141.192 C 80.776 140.333,80.765 136.846,81.436 136.175 C 81.927 135.684,147.646 135.458,149.724 135.940 M73.260 144.301 C 73.003 144.668,72.911 145.366,72.911 146.943 C 72.911 149.906,73.052 150.084,75.402 150.084 C 78.393 150.084,78.744 149.743,78.744 146.833 C 78.744 145.022,78.722 144.946,78.053 144.383 C 77.075 143.560,73.818 143.504,73.260 144.301 M81.107 144.335 C 80.192 145.251,80.117 148.855,80.995 149.733 C 81.444 150.182,138.502 150.172,139.447 149.723 C 140.372 149.285,140.478 148.935,140.392 146.614 C 140.327 144.862,140.311 144.818,139.563 144.315 L 138.801 143.803 110.220 143.803 L 81.640 143.803 81.107 144.335 M146.136 144.123 C 145.014 144.611,144.630 148.271,145.577 149.442 L 146.006 149.972 152.588 150.042 C 161.735 150.139,161.528 150.209,161.522 146.999 C 161.516 143.743,161.665 143.800,153.292 143.811 C 148.378 143.818,146.665 143.893,146.136 144.123 M77.651 144.622 C 78.065 145.122,78.082 149.041,77.671 149.452 C 77.129 149.994,74.154 149.981,73.607 149.434 C 73.077 148.905,72.908 145.544,73.367 144.685 C 73.688 144.086,77.163 144.035,77.651 144.622 M139.344 144.622 C 139.927 145.324,139.762 148.912,139.123 149.430 C 138.374 150.037,81.945 150.112,81.340 149.507 C 80.895 149.063,80.826 144.950,81.256 144.520 C 81.737 144.040,138.944 144.140,139.344 144.622 M160.422 144.610 C 160.619 144.847,160.724 145.652,160.730 146.985 C 160.746 150.051,161.172 149.894,153.056 149.813 L 146.454 149.748 146.005 149.192 C 145.370 148.408,145.472 145.062,146.145 144.570 C 146.835 144.065,160.001 144.103,160.422 144.610 M73.636 152.066 C 72.562 152.748,72.698 158.239,73.803 158.831 C 77.585 160.855,80.976 154.372,77.343 152.064 C 76.975 151.831,74.004 151.833,73.636 152.066 M81.378 152.159 C 79.907 153.282,80.097 157.997,81.647 158.827 C 82.109 159.074,108.727 159.163,109.632 158.920 C 110.866 158.589,111.362 153.541,110.278 152.343 C 109.759 151.770,82.119 151.594,81.378 152.159 M77.364 152.792 C 78.075 153.555,78.341 156.200,77.822 157.340 C 77.264 158.564,74.431 158.850,73.580 157.768 C 72.923 156.933,72.987 153.559,73.675 152.799 C 74.291 152.118,76.732 152.113,77.364 152.792 M110.154 153.057 C 110.854 154.205,110.793 156.989,110.050 157.791 L 109.500 158.385 95.734 158.385 C 79.463 158.385,80.987 158.684,80.987 155.490 C 80.987 153.826,81.061 153.415,81.452 152.919 L 81.917 152.328 95.813 152.328 L 109.709 152.328 110.154 153.057 M73.112 161.469 C 72.779 162.340,72.942 166.296,73.331 166.764 C 73.572 167.054,74.044 167.134,75.506 167.134 C 78.256 167.134,78.605 166.785,78.708 163.931 L 78.785 161.810 78.113 161.331 C 76.975 160.521,73.438 160.619,73.112 161.469 M80.778 161.504 C 80.242 162.257,80.156 163.945,80.577 165.425 C 81.104 167.273,80.080 167.134,93.124 167.134 L 104.742 167.134 105.091 166.635 C 105.502 166.048,105.591 162.002,105.208 161.286 C 104.983 160.866,104.612 160.852,93.109 160.852 L 81.242 160.852 80.778 161.504 M77.652 161.555 C 78.186 162.090,78.179 165.195,77.641 166.201 C 77.333 166.777,73.774 166.949,73.437 166.405 C 73.030 165.747,73.063 161.978,73.479 161.517 C 74.083 160.850,76.973 160.876,77.652 161.555 M104.863 161.429 C 105.279 161.845,105.371 165.528,104.984 166.251 C 104.658 166.860,81.945 166.938,81.340 166.333 C 80.797 165.790,80.830 161.640,81.380 161.319 C 82.103 160.898,104.437 161.003,104.863 161.429 M182.990 194.438 C 181.555 194.536,181.043 195.139,181.043 196.732 C 181.043 197.464,182.199 198.990,182.754 198.990 C 183.224 198.990,182.504 197.951,181.930 197.801 C 181.473 197.681,181.324 196.389,181.633 195.233 L 181.769 194.728 200.781 194.728 L 219.793 194.728 219.935 195.760 C 220.112 197.055,219.933 197.796,219.409 197.933 C 218.970 198.048,218.345 198.990,218.707 198.990 C 219.947 198.990,220.842 195.626,219.862 194.646 C 219.616 194.400,186.313 194.213,182.990 194.438 M191.980 199.159 C 196.823 199.192,204.748 199.192,209.591 199.159 C 214.434 199.125,210.471 199.097,200.785 199.097 C 191.099 199.097,187.137 199.125,191.980 199.159 " stroke="none" fill="#2c5454" fill-rule="evenodd"></path></g></svg>